<svg xmlns="http://www.w3.org/2000/svg" xmlns:xlink="http://www.w3.org/1999/xlink" viewBox="0 0 158.861 170.692">
  <defs>
    <style>
      .cls-1 {
        fill: url(#linear-gradient);
      }

      .cls-2 {
        fill: url(#linear-gradient-2);
      }

      .cls-10, .cls-3, .cls-6 {
        fill: #fff;
      }

      .cls-3 {
        opacity: 0.6;
      }

      .cls-4 {
        fill: #7ed1dd;
      }

      .cls-5 {
        fill: #c7c7c7;
      }

      .cls-27, .cls-7 {
        opacity: 0.7;
      }

      .cls-8 {
        fill: #abf994;
      }

      .cls-27, .cls-9 {
        fill: #5bfcff;
      }

      .cls-10 {
        opacity: 0.3;
      }

      .cls-11 {
        fill: url(#linear-gradient-3);
      }

      .cls-12 {
        fill: #2f2bc6;
      }

      .cls-13 {
        opacity: 0.5;
      }

      .cls-14 {
        fill: #1d1769;
      }

      .cls-15 {
        fill: url(#linear-gradient-4);
      }

      .cls-16 {
        fill: #f2caaa;
      }

      .cls-17 {
        fill: #e1e2e3;
      }

      .cls-18 {
        fill: #302b2d;
      }

      .cls-19 {
        fill: #adadad;
      }

      .cls-20 {
        fill: url(#linear-gradient-10);
      }

      .cls-21 {
        fill: #d6d6d6;
      }

      .cls-22 {
        fill: #f5d4b3;
      }

      .cls-23 {
        fill: #ebc4a5;
      }

      .cls-24 {
        fill: #231f20;
      }

      .cls-25 {
        fill: #b5b5b5;
      }

      .cls-26 {
        fill: #1d186e;
      }

      .cls-28 {
        fill: url(#linear-gradient-11);
      }
    </style>
    <linearGradient id="linear-gradient" x1="0.5" y1="1" x2="0.5" gradientUnits="objectBoundingBox">
      <stop offset="0" stop-color="#7cdbd6"/>
      <stop offset="1" stop-color="#3102c2"/>
    </linearGradient>
    <linearGradient id="linear-gradient-2" y1="0.5" x2="1" y2="0.5" gradientUnits="objectBoundingBox">
      <stop offset="0" stop-color="#3102c2"/>
      <stop offset="0.1" stop-color="#4131c6"/>
      <stop offset="0.209" stop-color="#505eca"/>
      <stop offset="0.324" stop-color="#5e84ce"/>
      <stop offset="0.442" stop-color="#68a4d0"/>
      <stop offset="0.564" stop-color="#71bcd3"/>
      <stop offset="0.692" stop-color="#77cdd4"/>
      <stop offset="0.832" stop-color="#7ad7d5"/>
      <stop offset="1" stop-color="#7cdbd6"/>
    </linearGradient>
    <linearGradient id="linear-gradient-3" x1="0.06" y1="0.216" x2="0.94" y2="-0.534" xlink:href="#linear-gradient"/>
    <linearGradient id="linear-gradient-4" x1="0.5" y1="1" x2="0.5" gradientUnits="objectBoundingBox">
      <stop offset="0" stop-color="#0002ff"/>
      <stop offset="0.134" stop-color="#2527ff"/>
      <stop offset="0.566" stop-color="#99f"/>
      <stop offset="0.863" stop-color="#e2e2ff"/>
      <stop offset="1" stop-color="#fff"/>
    </linearGradient>
    <linearGradient id="linear-gradient-10" x1="9211.873" y1="0.506" x2="9211.921" y2="0.487" gradientUnits="objectBoundingBox">
      <stop offset="0" stop-color="#5a6ddb"/>
      <stop offset="1" stop-color="#7b8ae9"/>
    </linearGradient>
    <linearGradient id="linear-gradient-11" x1="0.41" y1="0.65" x2="0.658" y2="0.22" xlink:href="#linear-gradient-4"/>
  </defs>
  <g id="finance-img" transform="translate(-20.139 -17.02)">
    <g id="Group_1" data-name="Group 1">
      <path id="Path_1" data-name="Path 1" class="cls-1" d="M175.954,142.58V127.362h-4.681c-3.768-6-9.8-11.629-18.132-16.438-30.426-17.568-79.756-17.568-110.182,0-8.331,4.809-14.365,10.439-18.134,16.438H20.139V142.73c0,11.512,7.606,23.024,22.82,31.807,30.426,17.566,79.756,17.566,110.182,0C168.42,165.716,176.02,154.143,175.954,142.58Z"/>
      <path id="Path_2" data-name="Path 2" class="cls-2" d="M153.141,95.855c30.425,17.567,30.425,46.047,0,63.614s-79.756,17.566-110.182,0-30.427-46.047,0-63.614S122.715,78.289,153.141,95.855Z"/>
    </g>
    <g id="Group_16" data-name="Group 16">
      <g id="Group_14" data-name="Group 14">
        <path id="Path_3" data-name="Path 3" class="cls-3" d="M160.984,80.526c-2.3,2.967-4.434,6.791-6.767,8.769-2.113,1.79-5.187-.709-6.958-5.1-3.145-7.8-3-8.891-4.063-13.879-2.947-13.783-9.312-13.966-10.937-5.382-.762,4.023-3.7,18.6-11.112,14.32-6.037-3.485-6.745-8.233-8.958-15.677-.84-2.83-4.52-8.241-7.765-5.353-2.656,2.363-5.022,14.983-5.3,18.224V84.7L171.1,126.262V118l.009-26.476C171.112,82.934,164.067,76.557,160.984,80.526Z"/>
        <path id="Path_4" data-name="Path 4" class="cls-4" d="M151.484,86.068c-2.3,2.967-2.934,11.792-5.267,13.769-2.113,1.79-5.187-.709-6.958-5.1-3.145-7.8-4.5-21.391-5.563-26.379-2.947-13.782-9.312-13.966-10.937-5.382-.762,4.023-3.7,30.1-11.112,25.82-6.037-3.485-6.745-12.232-8.958-19.677-.84-2.829-4.52-8.241-7.765-5.353-2.656,2.363-5.022,14.983-5.3,18.224v8.257L161.6,131.8v-8.257l.009-26.475C161.612,88.476,154.567,82.1,151.484,86.068Z"/>
        <g id="Group_2" data-name="Group 2">
          <rect id="Rectangle_1" data-name="Rectangle 1" class="cls-5" width="0.25" height="57.5" transform="translate(89.499 32.746)"/>
        </g>
        <g id="Group_3" data-name="Group 3">
          <rect id="Rectangle_2" data-name="Rectangle 2" class="cls-5" width="0.25" height="57.5" transform="translate(103.896 41.059)"/>
        </g>
        <g id="Group_4" data-name="Group 4">
          <rect id="Rectangle_3" data-name="Rectangle 3" class="cls-6" width="0.25" height="57.5" transform="translate(118.294 49.371)"/>
        </g>
        <g id="Group_5" data-name="Group 5">
          <rect id="Rectangle_4" data-name="Rectangle 4" class="cls-6" width="0.25" height="57.5" transform="translate(132.691 57.684)"/>
        </g>
        <g id="Group_6" data-name="Group 6">
          <rect id="Rectangle_5" data-name="Rectangle 5" class="cls-6" width="0.25" height="57.5" transform="translate(147.089 65.996)"/>
        </g>
        <g id="Group_7" data-name="Group 7">
          <rect id="Rectangle_6" data-name="Rectangle 6" class="cls-6" width="0.25" height="57.5" transform="translate(161.487 74.309)"/>
        </g>
        <g id="Group_8" data-name="Group 8">
          <path id="Path_5" data-name="Path 5" class="cls-6" d="M89.624,83.954a.375.375,0,0,1-.356-.493l8.718-26.378a.376.376,0,0,1,.713.236L89.98,83.7A.374.374,0,0,1,89.624,83.954Z"/>
        </g>
        <g id="Group_9" data-name="Group 9">
          <path id="Path_6" data-name="Path 6" class="cls-6" d="M111.009,86.426a.375.375,0,0,1-.344-.225L98,57.352a.375.375,0,1,1,.687-.3L111.352,85.9a.374.374,0,0,1-.343.526Z"/>
        </g>
        <g id="Group_10" data-name="Group 10">
          <path id="Path_7" data-name="Path 7" class="cls-6" d="M111.009,86.426a.375.375,0,0,1-.331-.551L127.3,54.516a.375.375,0,1,1,.662.351L111.34,86.227A.375.375,0,0,1,111.009,86.426Z"/>
        </g>
        <g id="Group_11" data-name="Group 11">
          <path id="Path_8" data-name="Path 8" class="cls-6" d="M142.759,96.632a.376.376,0,0,1-.353-.247L127.281,54.819a.375.375,0,0,1,.705-.255l15.125,41.565a.374.374,0,0,1-.224.48A.357.357,0,0,1,142.759,96.632Z"/>
        </g>
        <g id="Group_12" data-name="Group 12">
          <path id="Path_9" data-name="Path 9" class="cls-6" d="M142.759,96.632a.375.375,0,0,1-.263-.643l14-13.792a.375.375,0,1,1,.525.535l-14,13.792A.371.371,0,0,1,142.759,96.632Z"/>
        </g>
        <g id="Group_13" data-name="Group 13">
          <path id="Path_10" data-name="Path 10" class="cls-6" d="M156.759,82.84a.371.371,0,0,1-.264-.109.375.375,0,0,1,0-.53l4.854-4.906a.375.375,0,1,1,.533.527l-4.854,4.907A.373.373,0,0,1,156.759,82.84Z"/>
        </g>
        <path id="Path_11" data-name="Path 11" class="cls-6" d="M112.384,86.845c0,.76-.616,1.019-1.375.581a2.85,2.85,0,0,1-1.375-2.169c0-.759.615-1.02,1.375-.581A2.853,2.853,0,0,1,112.384,86.845Z"/>
        <path id="Path_12" data-name="Path 12" class="cls-6" d="M99.718,58.495c0,.759-.616,1.02-1.375.581a2.849,2.849,0,0,1-1.375-2.169c0-.759.615-1.019,1.375-.581A2.853,2.853,0,0,1,99.718,58.495Z"/>
        <path id="Path_13" data-name="Path 13" class="cls-6" d="M129.009,56.006c0,.76-.616,1.019-1.375.581a2.85,2.85,0,0,1-1.375-2.169c0-.76.615-1.02,1.375-.581A2.851,2.851,0,0,1,129.009,56.006Z"/>
        <path id="Path_14" data-name="Path 14" class="cls-6" d="M158.134,83.474c0,.759-.616,1.019-1.375.582a2.854,2.854,0,0,1-1.375-2.169c0-.76.615-1.02,1.375-.581A2.85,2.85,0,0,1,158.134,83.474Z"/>
        <path id="Path_15" data-name="Path 15" class="cls-6" d="M144.134,96.3c0,.759-.616,1.019-1.375.581a2.85,2.85,0,0,1-1.375-2.169c0-.76.615-1.02,1.375-.581A2.851,2.851,0,0,1,144.134,96.3Z"/>
      </g>
      <g id="Group_15" data-name="Group 15" class="cls-7">
        <path id="Path_16" data-name="Path 16" class="cls-8" d="M86.25,42.8a5.416,5.416,0,0,1-1.177.941c-1.244.719-2.323.5-2.855-.407l3.077-1.777V40.322l-3.4,1.964a3.808,3.808,0,0,1-.028-.452,4.683,4.683,0,0,1,.028-.484l3.4-1.964v-1.24l-3.077,1.777a7.1,7.1,0,0,1,2.855-3.7,3.071,3.071,0,0,1,1.168-.417l.517-1.425a4.446,4.446,0,0,0-1.685.6A9.912,9.912,0,0,0,80.9,40.685l-.67.386V42.31l.419-.241c-.012.161-.021.323-.021.481s.009.308.021.456l-.419.241v1.239l.67-.386c.623,1.558,2.257,1.992,4.175.883a7.684,7.684,0,0,0,1.7-1.356Z"/>
        <path id="Path_17" data-name="Path 17" class="cls-9" d="M153.689,72.688a5.245,5.245,0,0,0-1.457-2.873,11.119,11.119,0,0,0-1.054-.972V66.48c.921.717,1.086,1.165,1.156,1.535l1.211.44a5.44,5.44,0,0,0-2.367-3.235v-.614l-1.24-.715v.56a2.469,2.469,0,0,0-2.133-.219c-.441.268-.578.837-.4,1.646a6.118,6.118,0,0,0,2.529,3.247v2.759c-.16-.134-.294-.259-.393-.356a3.929,3.929,0,0,1-1-1.371l-1.225-.514a5.89,5.89,0,0,0,1.759,2.761,8.474,8.474,0,0,0,.861.745v1l1.24.716v-.979a2.886,2.886,0,0,0,1.592.268C153.427,74.047,153.762,73.512,153.689,72.688Zm-5.08-6.427c-.081-.359-.035-.575.142-.683a1.52,1.52,0,0,1,1.187.126v2.151C149.138,67.2,148.725,66.774,148.609,66.261Zm3.421,6.475a1.72,1.72,0,0,1-.852-.1V70.128c.18.159.355.319.508.483a2.743,2.743,0,0,1,.77,1.478C152.478,72.348,152.423,72.67,152.03,72.736Z"/>
        <path id="Path_18" data-name="Path 18" class="cls-6" d="M128.661,101.851a4.79,4.79,0,0,0-1.1-2.753,1.3,1.3,0,0,0,.658-1.269,4.92,4.92,0,0,0-1.871-3.425V93.8l-1.239-.715v.544l-.426-.246v-.544l-1.24-.716v.544l-.028-.016-.62-.358-.221-.128V93.4l.221.128v6.293l-.221-.128v1.24l.221.127.62.358.028.016v.543l1.24.715v-.542l.426.246v.543l1.239.715V103.1C127.647,103.7,128.661,103.188,128.661,101.851Zm-4.627-7.607,1.776,1.026a2.429,2.429,0,0,1,1.169,1.844c0,.645-.524.866-1.169.494l-1.776-1.026Zm2.03,7.466-2.03-1.172V97.821l1.776,1.026.254.146a2.824,2.824,0,0,1,1.359,2.143C127.423,101.885,126.813,102.143,126.064,101.71Z"/>
      </g>
    </g>
    <g id="Group_27" data-name="Group 27">
      <g id="Group_26" data-name="Group 26">
        <path id="Path_19" data-name="Path 19" class="cls-10" d="M76.289,29.66,70,26.726v.009a2.866,2.866,0,0,0-2.689.365L29.8,48.756a7.607,7.607,0,0,0-3.669,5.788v60.943a2.1,2.1,0,0,0,.73,1.757l-.007.008.075.034a1.618,1.618,0,0,0,.48.226l6.086,2.861.455-5.731L67.311,95.381a7.6,7.6,0,0,0,3.67-5.787V33.75Z"/>
        <path id="Path_20" data-name="Path 20" class="cls-11" d="M77.492,31.678V92.621a7.6,7.6,0,0,1-3.669,5.787L36.312,120.065c-2.023,1.168-3.668.48-3.668-1.55V57.571a7.611,7.611,0,0,1,3.668-5.788L73.823,30.127C75.848,28.958,77.492,29.648,77.492,31.678Z"/>
        <path id="Path_21" data-name="Path 21" class="cls-12" d="M77.492,31.678V33.1L32.644,59V57.571a7.611,7.611,0,0,1,3.668-5.788L73.823,30.127C75.848,28.958,77.492,29.648,77.492,31.678Z"/>
        <path id="Path_22" data-name="Path 22" class="cls-9" d="M36.166,61.732l-.45.26V60.329l-.177.1v-.047l.237-.785.39-.225Z"/>
        <path id="Path_23" data-name="Path 23" class="cls-9" d="M38.057,60.426a.453.453,0,0,1-.277.375l-.955.551q-.271.157-.272-.058V59.368a.452.452,0,0,1,.278-.377l.949-.548c.184-.106.277-.088.277.057Zm-.449.172V58.845L37,59.194v1.752Z"/>
        <path id="Path_24" data-name="Path 24" class="cls-9" d="M39.928,59.346a.449.449,0,0,1-.277.374l-.955.551c-.18.1-.271.086-.271-.058V58.288a.455.455,0,0,1,.277-.378l.949-.548q.277-.159.277.058Zm-.449.171V57.765l-.6.349v1.752Z"/>
        <path id="Path_25" data-name="Path 25" class="cls-9" d="M41.8,58.265a.449.449,0,0,1-.277.375l-.955.551c-.181.1-.272.085-.272-.058V57.208a.457.457,0,0,1,.278-.378l.949-.548q.278-.159.277.058Zm-.448.171V56.685l-.605.348v1.753Z"/>
        <path id="Path_26" data-name="Path 26" class="cls-9" d="M46.144,55.972l-.45.259V54.568l-.175.1v-.047l.236-.784.389-.225Z"/>
        <path id="Path_27" data-name="Path 27" class="cls-9" d="M47.086,55.428l-.45.26V54.024l-.176.1V54.08l.236-.785.39-.225Z"/>
        <path id="Path_28" data-name="Path 28" class="cls-9" d="M48.027,54.885l-.45.26V53.481l-.176.1v-.047l.237-.784.389-.226Z"/>
        <path id="Path_29" data-name="Path 29" class="cls-9" d="M56.6,49.722a.45.45,0,0,1-.277.375l-.955.551c-.18.1-.271.085-.271-.058V48.665a.454.454,0,0,1,.277-.378l.949-.548q.278-.159.277.058Zm-.449.172V48.142l-.6.348v1.753Z"/>
        <path id="Path_30" data-name="Path 30" class="cls-9" d="M58.467,48.642a.451.451,0,0,1-.277.375l-.955.551c-.18.1-.271.085-.271-.058V47.584a.455.455,0,0,1,.278-.377l.948-.548q.278-.159.277.058Zm-.448.172V47.061l-.6.349v1.752Z"/>
        <path id="Path_31" data-name="Path 31" class="cls-9" d="M60.338,47.561a.449.449,0,0,1-.277.375l-.955.552c-.18.1-.271.085-.271-.058V46.5a.45.45,0,0,1,.277-.377l.949-.548c.185-.106.277-.088.277.057Zm-.448.172V45.98l-.6.35v1.752Z"/>
        <path id="Path_32" data-name="Path 32" class="cls-9" d="M62.209,46.481a.45.45,0,0,1-.275.375l-.957.551c-.18.1-.271.086-.271-.058V45.424a.454.454,0,0,1,.278-.378l.95-.548c.183-.1.275-.087.275.058Zm-.448.171V44.9l-.605.35V47Z"/>
        <path id="Path_33" data-name="Path 33" class="cls-9" d="M65,45.084l-.45.26V43.681l-.176.1v-.046l.236-.785.39-.224Z"/>
        <path id="Path_34" data-name="Path 34" class="cls-9" d="M66.893,43.777a.447.447,0,0,1-.276.374l-.956.552q-.271.157-.271-.058V42.72a.452.452,0,0,1,.278-.378l.949-.548c.184-.1.276-.087.276.058Zm-.449.171V42.2l-.6.35V44.3Z"/>
        <path id="Path_35" data-name="Path 35" class="cls-9" d="M67.814,43.46l-.449.26V42.057l-.177.1v-.046l.238-.785.388-.225Z"/>
        <path id="Path_36" data-name="Path 36" class="cls-9" d="M69.705,42.153a.45.45,0,0,1-.275.375l-.955.551c-.182.1-.273.086-.273-.059V41.1a.452.452,0,0,1,.278-.377l.95-.549c.183-.1.275-.087.275.057Zm-.448.171V40.572l-.605.35v1.752Z"/>
        <path id="Path_37" data-name="Path 37" class="cls-9" d="M70.627,41.836l-.45.26V40.433l-.176.1v-.047l.237-.785.389-.224Z"/>
        <path id="Path_38" data-name="Path 38" class="cls-9" d="M72.518,40.529a.45.45,0,0,1-.276.375l-.955.552c-.182.1-.272.085-.272-.058V39.472a.45.45,0,0,1,.278-.377l.949-.548q.276-.161.276.057Zm-.449.172V38.948l-.6.35V41.05Z"/>
        <path id="Path_39" data-name="Path 39" class="cls-9" d="M73.439,40.213l-.449.26V38.81l-.177.1v-.047l.238-.784.388-.225Z"/>
        <path id="Path_40" data-name="Path 40" class="cls-9" d="M36.166,65.435l-.45.26V64.032l-.177.1v-.047l.237-.784.39-.225Z"/>
        <path id="Path_41" data-name="Path 41" class="cls-9" d="M37.107,64.892l-.45.259V63.488l-.177.1v-.046l.238-.785.389-.225Z"/>
        <path id="Path_42" data-name="Path 42" class="cls-9" d="M38.049,64.349l-.45.259V62.945l-.176.1V63l.236-.784.39-.226Z"/>
        <path id="Path_43" data-name="Path 43" class="cls-9" d="M38.99,63.805l-.45.26V62.4l-.176.1v-.047l.237-.784.389-.225Z"/>
        <path id="Path_44" data-name="Path 44" class="cls-9" d="M40.881,62.5a.447.447,0,0,1-.277.374l-.955.552c-.18.1-.271.086-.271-.059V61.44a.453.453,0,0,1,.277-.377l.949-.548c.185-.107.277-.087.277.057Zm-.448.171V60.917l-.6.349v1.753Z"/>
        <path id="Path_45" data-name="Path 45" class="cls-9" d="M41.8,62.181l-.451.259V60.777l-.175.1v-.046l.236-.785.39-.225Z"/>
        <path id="Path_46" data-name="Path 46" class="cls-9" d="M45.227,60.2l-.451.26V58.8l-.175.1v-.047l.236-.784.39-.224Z"/>
        <path id="Path_47" data-name="Path 47" class="cls-9" d="M46.168,59.66l-.45.26V58.257l-.176.1v-.045l.236-.786.39-.224Z"/>
        <path id="Path_48" data-name="Path 48" class="cls-9" d="M48.059,58.354a.452.452,0,0,1-.276.375l-.955.55c-.182.106-.272.086-.272-.058V57.3a.45.45,0,0,1,.278-.377l.949-.549c.184-.1.276-.087.276.058Zm-.449.17V56.773l-.6.349v1.752Z"/>
        <path id="Path_49" data-name="Path 49" class="cls-9" d="M49.93,57.273a.45.45,0,0,1-.276.375L48.7,58.2c-.181.1-.272.085-.272-.058V56.216a.452.452,0,0,1,.278-.378l.949-.548q.276-.159.276.058Zm-.449.171V55.692l-.6.349v1.753Z"/>
        <path id="Path_50" data-name="Path 50" class="cls-9" d="M50.852,56.956l-.451.26V55.553l-.175.1v-.046l.236-.785.39-.224Z"/>
        <path id="Path_51" data-name="Path 51" class="cls-9" d="M52.742,55.649a.45.45,0,0,1-.275.375l-.955.551q-.273.157-.273-.058V54.592a.451.451,0,0,1,.279-.377l.949-.549q.275-.159.275.058Zm-.448.171V54.068l-.6.35V56.17Z"/>
        <path id="Path_52" data-name="Path 52" class="cls-9" d="M56.484,53.488a.447.447,0,0,1-.275.375l-.955.552q-.273.157-.273-.059V52.431a.452.452,0,0,1,.279-.377l.949-.548c.184-.107.275-.087.275.058Zm-.448.172V51.908l-.6.349v1.752Z"/>
        <path id="Path_53" data-name="Path 53" class="cls-9" d="M57.407,53.172l-.45.26V51.769l-.177.1v-.047l.238-.784.389-.224Z"/>
        <path id="Path_54" data-name="Path 54" class="cls-9" d="M59.3,51.864a.45.45,0,0,1-.277.375l-.955.552c-.181.1-.272.085-.272-.059V50.807a.453.453,0,0,1,.278-.377l.949-.548c.184-.107.277-.087.277.058Zm-.448.172V50.284l-.606.349v1.753Z"/>
        <path id="Path_55" data-name="Path 55" class="cls-9" d="M61.168,50.784a.449.449,0,0,1-.275.375l-.956.552c-.181.1-.272.085-.272-.059V49.727a.453.453,0,0,1,.278-.377l.95-.548c.183-.107.275-.087.275.057Zm-.448.172V49.2l-.6.349v1.752Z"/>
        <path id="Path_56" data-name="Path 56" class="cls-9" d="M62.091,50.468l-.45.259V49.065l-.177.1v-.047l.237-.784.39-.225Z"/>
        <path id="Path_57" data-name="Path 57" class="cls-9" d="M65.852,48.08a.448.448,0,0,1-.276.375l-.955.552c-.181.1-.271.085-.271-.059V47.023a.451.451,0,0,1,.277-.378l.949-.547c.185-.107.276-.087.276.057Zm-.448.172V46.5l-.6.35V48.6Z"/>
        <path id="Path_58" data-name="Path 58" class="cls-9" d="M67.724,47a.449.449,0,0,1-.277.375l-.955.552c-.181.1-.271.085-.271-.059V45.942a.451.451,0,0,1,.277-.377l.949-.547q.278-.161.277.056Zm-.449.172V45.419l-.6.35V47.52Z"/>
        <path id="Path_59" data-name="Path 59" class="cls-9" d="M69.6,45.92a.447.447,0,0,1-.277.374l-.955.552c-.18.1-.271.086-.271-.059V44.862a.455.455,0,0,1,.277-.378l.949-.548c.185-.106.277-.086.277.058Zm-.449.171V44.339l-.6.35V46.44Z"/>
        <path id="Path_60" data-name="Path 60" class="cls-9" d="M36.166,69.138l-.45.26V67.734l-.177.1v-.047L35.776,67l.39-.225Z"/>
        <path id="Path_61" data-name="Path 61" class="cls-9" d="M38.057,67.83a.451.451,0,0,1-.277.375l-.955.552c-.181.1-.272.085-.272-.059V66.773a.452.452,0,0,1,.278-.378l.949-.547c.184-.107.277-.087.277.056ZM37.608,68V66.25L37,66.6v1.752Z"/>
        <path id="Path_62" data-name="Path 62" class="cls-9" d="M39.928,66.75a.449.449,0,0,1-.277.375l-.955.551c-.18.1-.271.086-.271-.059V65.692a.453.453,0,0,1,.277-.377l.949-.548q.277-.159.277.057Zm-.449.171V65.169l-.6.35V67.27Z"/>
        <path id="Path_63" data-name="Path 63" class="cls-9" d="M40.85,66.434l-.451.259V65.029l-.175.1v-.047l.236-.784.39-.226Z"/>
        <path id="Path_64" data-name="Path 64" class="cls-9" d="M41.791,65.89l-.45.259V64.486l-.176.1v-.047l.236-.784.39-.225Z"/>
        <path id="Path_65" data-name="Path 65" class="cls-9" d="M46.164,63.149a.448.448,0,0,1-.275.374l-.956.552q-.271.158-.272-.058V62.092a.454.454,0,0,1,.278-.378l.95-.548q.274-.159.275.058Zm-.448.171V61.568l-.6.35V63.67Z"/>
        <path id="Path_66" data-name="Path 66" class="cls-9" d="M47.086,62.832l-.45.26V61.429l-.176.1v-.047L46.7,60.7l.39-.224Z"/>
        <path id="Path_67" data-name="Path 67" class="cls-9" d="M48.977,61.525a.45.45,0,0,1-.276.375l-.956.551c-.181.106-.271.086-.271-.057V60.468a.45.45,0,0,1,.278-.377l.949-.548q.276-.16.276.057Zm-.449.172V59.944l-.6.35v1.752Z"/>
        <path id="Path_68" data-name="Path 68" class="cls-9" d="M50.848,60.445a.447.447,0,0,1-.276.374l-.955.552c-.182.105-.272.086-.272-.058V59.388a.452.452,0,0,1,.278-.378l.949-.548c.184-.107.276-.087.276.058Zm-.449.171V58.864l-.6.349v1.753Z"/>
        <path id="Path_69" data-name="Path 69" class="cls-9" d="M51.769,60.128l-.45.26V58.725l-.175.1V58.78l.236-.785.389-.225Z"/>
        <path id="Path_70" data-name="Path 70" class="cls-9" d="M56.76,57.247l-.45.26V55.844l-.177.1V55.9l.237-.785.39-.224Z"/>
        <path id="Path_71" data-name="Path 71" class="cls-9" d="M58.65,55.94a.448.448,0,0,1-.276.375l-.955.551c-.181.106-.272.086-.272-.057V54.883a.45.45,0,0,1,.278-.377l.949-.549c.185-.1.276-.087.276.058Zm-.448.172V54.359l-.6.35v1.752Z"/>
        <path id="Path_72" data-name="Path 72" class="cls-9" d="M60.521,54.86a.45.45,0,0,1-.276.375l-.955.551c-.182.1-.272.086-.272-.059V53.8a.45.45,0,0,1,.278-.377l.949-.549q.276-.159.276.058Zm-.448.171V53.279l-.605.35v1.752Z"/>
        <path id="Path_73" data-name="Path 73" class="cls-9" d="M62.393,53.779a.447.447,0,0,1-.277.375l-.955.552q-.271.156-.271-.058V52.723a.451.451,0,0,1,.277-.378l.949-.548c.185-.107.277-.087.277.058Zm-.449.172V52.2l-.6.349V54.3Z"/>
        <path id="Path_74" data-name="Path 74" class="cls-9" d="M65.829,51.8a.45.45,0,0,1-.276.375l-.955.551c-.182.1-.272.086-.272-.059V50.738a.453.453,0,0,1,.277-.377l.95-.548q.276-.159.276.057Zm-.448.171V50.215l-.6.35v1.751Z"/>
        <path id="Path_75" data-name="Path 75" class="cls-9" d="M67.7,50.715a.45.45,0,0,1-.276.375l-.955.552c-.181.1-.272.085-.272-.059V49.658a.457.457,0,0,1,.278-.378l.949-.548q.276-.159.276.058Zm-.448.172V49.135l-.6.348v1.753Z"/>
        <path id="Path_76" data-name="Path 76" class="cls-9" d="M68.622,50.4l-.45.26V48.995L68,49.1v-.046l.236-.785.39-.225Z"/>
        <path id="Path_77" data-name="Path 77" class="cls-9" d="M70.513,49.092a.451.451,0,0,1-.277.375l-.955.551c-.18.1-.271.086-.271-.059V48.034a.453.453,0,0,1,.277-.377l.949-.549c.185-.105.277-.087.277.058Zm-.449.171V47.511l-.6.349v1.752Z"/>
        <path id="Path_78" data-name="Path 78" class="cls-9" d="M71.435,48.774l-.451.26V47.371l-.175.1v-.046l.236-.785.39-.225Z"/>
        <path id="Path_79" data-name="Path 79" class="cls-9" d="M73.325,47.468a.453.453,0,0,1-.275.375l-.956.551c-.181.1-.272.086-.272-.059V46.41a.454.454,0,0,1,.278-.377l.95-.549q.274-.157.275.058Zm-.448.172V45.887l-.6.349v1.752Z"/>
        <path id="Path_80" data-name="Path 80" class="cls-9" d="M74.247,47.151l-.45.26V45.748l-.176.1V45.8l.236-.784.39-.226Z"/>
        <path id="Path_81" data-name="Path 81" class="cls-9" d="M37.115,72.076a.451.451,0,0,1-.276.375L35.884,73c-.182.1-.273.085-.273-.059V71.019a.451.451,0,0,1,.279-.377l.949-.548c.183-.107.276-.087.276.056Zm-.448.172V70.5l-.6.349V72.6Z"/>
        <path id="Path_82" data-name="Path 82" class="cls-9" d="M38.037,71.76l-.45.26V70.356l-.176.1v-.047l.236-.784.39-.226Z"/>
        <path id="Path_83" data-name="Path 83" class="cls-9" d="M39.928,70.452a.449.449,0,0,1-.277.375l-.955.552c-.18.1-.271.085-.271-.059V69.395a.452.452,0,0,1,.277-.377l.949-.548c.185-.107.277-.087.277.057Zm-.449.172V68.872l-.6.349v1.752Z"/>
        <path id="Path_84" data-name="Path 84" class="cls-9" d="M40.85,70.136l-.451.259V68.732l-.175.1v-.047L40.46,68l.39-.225Z"/>
        <path id="Path_85" data-name="Path 85" class="cls-9" d="M46.164,66.852a.453.453,0,0,1-.275.375l-.956.551c-.181.105-.272.085-.272-.058V65.794a.452.452,0,0,1,.278-.377l.95-.548c.183-.106.275-.088.275.057Zm-.448.171V65.271l-.6.349v1.752Z"/>
        <path id="Path_86" data-name="Path 86" class="cls-9" d="M47.086,66.535l-.45.26V65.132l-.176.1v-.047L46.7,64.4l.39-.224Z"/>
        <path id="Path_87" data-name="Path 87" class="cls-9" d="M48.977,65.227a.448.448,0,0,1-.276.375l-.956.552c-.181.105-.271.085-.271-.058V64.17a.451.451,0,0,1,.278-.377l.949-.548q.276-.159.276.058Zm-.449.172V63.648l-.6.348v1.752Z"/>
        <path id="Path_88" data-name="Path 88" class="cls-9" d="M49.9,64.911l-.45.26V63.508l-.176.1v-.046l.238-.785.388-.224Z"/>
        <path id="Path_89" data-name="Path 89" class="cls-9" d="M51.789,63.6a.451.451,0,0,1-.275.375l-.955.551c-.182.105-.273.085-.273-.058V62.547a.454.454,0,0,1,.278-.378l.95-.548q.274-.159.275.058Zm-.448.171V62.023l-.6.349v1.752Z"/>
        <path id="Path_90" data-name="Path 90" class="cls-9" d="M52.1,63.641l-.451.259V62.237l-.175.1v-.047l.236-.784.39-.226Z"/>
        <path id="Path_91" data-name="Path 91" class="cls-9" d="M54.912,62.017l-.45.259V60.613l-.176.1v-.047l.237-.784.389-.226Z"/>
        <path id="Path_92" data-name="Path 92" class="cls-9" d="M56.8,60.709a.45.45,0,0,1-.276.375l-.955.552c-.181.1-.272.085-.272-.059V59.651a.455.455,0,0,1,.278-.377l.949-.547c.184-.107.276-.087.276.057Zm-.449.172V59.129l-.6.348V61.23Z"/>
        <path id="Path_93" data-name="Path 93" class="cls-9" d="M57.725,60.393l-.45.259V58.989l-.176.1v-.047l.237-.784.389-.225Z"/>
        <path id="Path_94" data-name="Path 94" class="cls-9" d="M59.615,59.085a.449.449,0,0,1-.275.375l-.955.552c-.182.1-.273.085-.273-.059V58.027a.455.455,0,0,1,.279-.377l.949-.548c.183-.106.275-.086.275.058Zm-.447.172V57.505l-.606.349v1.752Z"/>
        <path id="Path_95" data-name="Path 95" class="cls-9" d="M60.537,58.769l-.449.259V57.365l-.177.1v-.046l.237-.785.389-.225Z"/>
        <path id="Path_96" data-name="Path 96" class="cls-9" d="M62.428,57.462a.449.449,0,0,1-.276.374l-.955.552c-.181.1-.272.086-.272-.059V56.4a.457.457,0,0,1,.278-.378l.949-.547q.276-.159.276.057Zm-.448.171V55.881l-.6.349v1.752Z"/>
        <path id="Path_97" data-name="Path 97" class="cls-9" d="M65.852,55.484a.446.446,0,0,1-.276.375l-.955.552q-.271.157-.271-.059V54.427a.45.45,0,0,1,.277-.377l.949-.548c.185-.107.276-.087.276.058Zm-.448.172V53.9l-.6.349v1.752Z"/>
        <path id="Path_98" data-name="Path 98" class="cls-9" d="M66.774,55.168l-.45.26V53.765l-.176.1v-.047l.237-.784.389-.225Z"/>
        <path id="Path_99" data-name="Path 99" class="cls-9" d="M68.665,53.86a.447.447,0,0,1-.276.375l-.955.552c-.181.1-.272.085-.272-.058V52.8a.453.453,0,0,1,.277-.378l.95-.548c.184-.107.276-.087.276.057Zm-.448.172V52.28l-.605.349v1.753Z"/>
        <path id="Path_100" data-name="Path 100" class="cls-9" d="M69.587,53.544l-.45.26V52.141l-.176.1v-.047l.236-.784.39-.225Z"/>
        <path id="Path_101" data-name="Path 101" class="cls-9" d="M71.477,52.237a.446.446,0,0,1-.275.374l-.956.552q-.271.158-.271-.058V51.18a.452.452,0,0,1,.278-.378l.949-.548c.184-.106.275-.087.275.057Zm-.448.171V50.656l-.6.35v1.752Z"/>
        <path id="Path_102" data-name="Path 102" class="cls-9" d="M72.4,51.92l-.45.26V50.517l-.176.1v-.046l.237-.785.389-.224Z"/>
        <path id="Path_103" data-name="Path 103" class="cls-9" d="M74.29,50.613a.45.45,0,0,1-.276.375l-.955.551q-.271.159-.272-.059V49.556a.452.452,0,0,1,.277-.377l.95-.549q.276-.159.276.058Zm-.448.172V49.032l-.605.35v1.752Z"/>
        <path id="Path_104" data-name="Path 104" class="cls-9" d="M36.166,76.542l-.45.26V75.139l-.177.1v-.046l.237-.785.39-.224Z"/>
        <path id="Path_105" data-name="Path 105" class="cls-9" d="M38.057,75.235a.451.451,0,0,1-.277.375l-.955.551c-.181.106-.272.086-.272-.057V74.178a.45.45,0,0,1,.278-.377l.949-.549c.184-.106.277-.087.277.058Zm-.449.172V73.654L37,74v1.752Z"/>
        <path id="Path_106" data-name="Path 106" class="cls-9" d="M38.978,74.918l-.45.26V73.515l-.176.1V73.57l.237-.785.389-.225Z"/>
        <path id="Path_107" data-name="Path 107" class="cls-9" d="M40.869,73.611a.45.45,0,0,1-.276.375l-.955.551c-.181.106-.272.086-.272-.057V72.554a.452.452,0,0,1,.278-.377l.949-.548c.184-.106.276-.088.276.056Zm-.448.172V72.03l-.6.35v1.752Z"/>
        <path id="Path_108" data-name="Path 108" class="cls-9" d="M41.791,73.295l-.45.26V71.892l-.176.1v-.047l.236-.784.39-.224Z"/>
        <path id="Path_109" data-name="Path 109" class="cls-9" d="M45.215,71.317l-.45.26V69.914l-.176.1V69.97l.236-.785.39-.225Z"/>
        <path id="Path_110" data-name="Path 110" class="cls-9" d="M47.1,70.011a.451.451,0,0,1-.275.375l-.955.55c-.182.105-.273.087-.273-.058V68.953a.454.454,0,0,1,.279-.377l.949-.549c.184-.105.275-.087.275.058Zm-.448.171V68.43l-.6.349v1.752Z"/>
        <path id="Path_111" data-name="Path 111" class="cls-9" d="M48.027,69.694l-.45.26V68.291l-.176.1v-.047l.237-.785.389-.225Z"/>
        <path id="Path_112" data-name="Path 112" class="cls-9" d="M49.918,68.387a.453.453,0,0,1-.275.375l-.956.552q-.271.156-.272-.059V67.329a.454.454,0,0,1,.278-.377l.95-.548c.183-.106.275-.088.275.058Zm-.448.172V66.807l-.6.348v1.752Z"/>
        <path id="Path_113" data-name="Path 113" class="cls-9" d="M51.789,67.307a.453.453,0,0,1-.275.375l-.955.55c-.182.106-.273.086-.273-.058V66.249a.457.457,0,0,1,.278-.378l.95-.548c.183-.1.275-.087.275.058Zm-.448.172V65.726l-.6.349v1.752Z"/>
        <path id="Path_114" data-name="Path 114" class="cls-9" d="M60.429,62.534l-.451.26V61.131l-.175.1v-.047l.236-.784.39-.224Z"/>
        <path id="Path_115" data-name="Path 115" class="cls-9" d="M62.319,61.227a.45.45,0,0,1-.276.375l-.955.551c-.181.1-.272.085-.272-.058V60.17a.452.452,0,0,1,.278-.378l.949-.548q.276-.159.276.058Zm-.448.171V59.646l-.6.349v1.753Z"/>
        <path id="Path_116" data-name="Path 116" class="cls-9" d="M65.21,59.773l-.45.26V58.37l-.177.1v-.047l.237-.785.39-.225Z"/>
        <path id="Path_117" data-name="Path 117" class="cls-9" d="M66.151,59.23l-.45.26V57.827l-.176.1v-.047l.237-.784.389-.225Z"/>
        <path id="Path_118" data-name="Path 118" class="cls-9" d="M68.042,57.923a.453.453,0,0,1-.276.375l-.956.552c-.181.1-.271.085-.271-.059V56.865a.454.454,0,0,1,.277-.377l.95-.548c.183-.106.276-.086.276.058Zm-.448.172V56.343l-.605.348v1.752Z"/>
        <path id="Path_119" data-name="Path 119" class="cls-9" d="M68.963,57.606l-.449.26V56.2l-.177.1v-.047l.237-.784.389-.225Z"/>
        <path id="Path_120" data-name="Path 120" class="cls-9" d="M70.854,56.3a.449.449,0,0,1-.276.374l-.955.552c-.182.1-.272.085-.272-.059V55.242a.455.455,0,0,1,.278-.378l.949-.548c.184-.106.276-.086.276.058Zm-.448.171V54.719l-.6.349V56.82Z"/>
        <path id="Path_121" data-name="Path 121" class="cls-9" d="M72.726,55.219a.45.45,0,0,1-.277.375l-.955.551c-.181.1-.271.085-.271-.058V54.161a.452.452,0,0,1,.277-.377l.949-.548q.278-.159.277.058Zm-.449.172V53.639l-.6.348v1.752Z"/>
        <path id="Path_122" data-name="Path 122" class="cls-9" d="M74.6,54.139a.451.451,0,0,1-.277.375l-.955.551c-.18.1-.271.085-.271-.058V53.081a.45.45,0,0,1,.277-.377l.949-.548c.185-.106.277-.088.277.057Zm-.449.171V52.558l-.6.349v1.752Z"/>
        <path id="Path_123" data-name="Path 123" class="cls-9" d="M36.166,80.245l-.45.26V78.842l-.177.1V78.9l.237-.784.39-.225Z"/>
        <path id="Path_124" data-name="Path 124" class="cls-9" d="M38.057,78.938a.452.452,0,0,1-.277.375l-.955.551c-.181.105-.272.085-.272-.058V77.88a.451.451,0,0,1,.278-.377l.949-.548c.184-.106.277-.087.277.058Zm-.449.171V77.357L37,77.706v1.752Z"/>
        <path id="Path_125" data-name="Path 125" class="cls-9" d="M39.928,77.857a.449.449,0,0,1-.277.375l-.955.551c-.18.106-.271.086-.271-.057V76.8a.45.45,0,0,1,.277-.377l.949-.548c.185-.106.277-.088.277.057Zm-.449.172V76.276l-.6.35v1.752Z"/>
        <path id="Path_126" data-name="Path 126" class="cls-9" d="M41.8,76.777a.449.449,0,0,1-.277.375l-.955.551c-.181.106-.272.086-.272-.058V75.72a.452.452,0,0,1,.278-.377l.949-.549c.185-.1.277-.087.277.058Zm-.448.171V75.2l-.605.35V77.3Z"/>
        <path id="Path_127" data-name="Path 127" class="cls-9" d="M45.533,74.837l-.45.26V73.434l-.176.1v-.047l.237-.784.389-.225Z"/>
        <path id="Path_128" data-name="Path 128" class="cls-9" d="M47.424,73.529a.448.448,0,0,1-.277.375l-.955.552c-.18.1-.271.085-.271-.058V72.472A.452.452,0,0,1,46.2,72.1l.949-.548c.185-.107.277-.087.277.058Zm-.448.172V71.949l-.605.349V74.05Z"/>
        <path id="Path_129" data-name="Path 129" class="cls-9" d="M48.346,73.213l-.451.26V71.81l-.175.1v-.047l.236-.784.39-.225Z"/>
        <path id="Path_130" data-name="Path 130" class="cls-9" d="M50.236,71.9a.449.449,0,0,1-.275.375l-.956.552c-.181.1-.272.085-.272-.059V70.848a.452.452,0,0,1,.279-.377l.949-.548c.183-.107.275-.087.275.057Zm-.448.172V70.325l-.6.349v1.752Z"/>
        <path id="Path_131" data-name="Path 131" class="cls-9" d="M65.21,63.477l-.45.259V62.073l-.177.1v-.047l.237-.784.39-.225Z"/>
        <path id="Path_132" data-name="Path 132" class="cls-9" d="M67.1,62.169a.45.45,0,0,1-.277.375l-.955.552c-.182.1-.272.085-.272-.059V61.111a.453.453,0,0,1,.278-.377l.949-.548c.184-.106.277-.086.277.058Zm-.449.172V60.589l-.6.349V62.69Z"/>
        <path id="Path_133" data-name="Path 133" class="cls-9" d="M68.971,61.089a.452.452,0,0,1-.276.375l-.955.552c-.181.1-.272.085-.272-.059V60.031a.453.453,0,0,1,.278-.377l.949-.548c.184-.106.276-.086.276.058Zm-.448.172V59.509l-.605.348v1.752Z"/>
        <path id="Path_134" data-name="Path 134" class="cls-9" d="M70.843,60.009a.453.453,0,0,1-.277.375l-.955.551q-.271.157-.271-.059V58.951a.453.453,0,0,1,.277-.377l.949-.549c.184-.105.277-.086.277.058Zm-.449.172V58.428l-.6.349v1.752Z"/>
        <path id="Path_135" data-name="Path 135" class="cls-9" d="M71.765,59.691l-.451.26V58.288l-.175.1v-.047l.236-.785.39-.225Z"/>
        <path id="Path_136" data-name="Path 136" class="cls-9" d="M73.655,58.385a.452.452,0,0,1-.276.375l-.955.55c-.181.106-.272.086-.272-.057V57.327a.454.454,0,0,1,.278-.377l.949-.548q.276-.159.276.057Zm-.448.172V56.8l-.605.349V58.9Z"/>
        <path id="Path_137" data-name="Path 137" class="cls-9" d="M36.166,83.947l-.45.26V82.544l-.177.1V82.6l.237-.784.39-.226Z"/>
        <path id="Path_138" data-name="Path 138" class="cls-9" d="M37.107,83.4l-.45.26V82l-.177.1v-.047l.238-.785.389-.224Z"/>
        <path id="Path_139" data-name="Path 139" class="cls-9" d="M39,82.1a.45.45,0,0,1-.276.375l-.955.552q-.273.156-.273-.059V81.039a.457.457,0,0,1,.278-.378l.95-.548q.276-.159.276.058Zm-.448.172V80.516l-.6.348v1.753Z"/>
        <path id="Path_140" data-name="Path 140" class="cls-9" d="M40.869,81.016a.451.451,0,0,1-.276.375l-.955.551c-.181.1-.272.085-.272-.058V79.958a.455.455,0,0,1,.278-.377l.949-.548q.276-.159.276.058Zm-.448.172V79.435l-.6.349v1.752Z"/>
        <path id="Path_141" data-name="Path 141" class="cls-9" d="M46.164,77.959a.45.45,0,0,1-.275.374l-.956.552c-.181.1-.272.086-.272-.059V76.9a.457.457,0,0,1,.278-.378l.95-.547c.183-.107.275-.087.275.057Zm-.448.171V76.378l-.6.349V78.48Z"/>
        <path id="Path_142" data-name="Path 142" class="cls-9" d="M47.086,77.642l-.45.259V76.238l-.176.1v-.046l.236-.785.39-.225Z"/>
        <path id="Path_143" data-name="Path 143" class="cls-9" d="M48.977,76.335a.45.45,0,0,1-.276.375l-.956.551c-.181.1-.271.086-.271-.059V75.277a.452.452,0,0,1,.278-.377l.949-.548q.276-.159.276.057Zm-.449.172V74.754l-.6.35v1.751Z"/>
        <path id="Path_144" data-name="Path 144" class="cls-9" d="M49.9,76.018l-.45.259V74.614l-.176.1V74.67l.238-.785.388-.225Z"/>
        <path id="Path_145" data-name="Path 145" class="cls-9" d="M51.789,74.711a.45.45,0,0,1-.275.375l-.955.551q-.273.157-.273-.058V73.653a.454.454,0,0,1,.278-.377l.95-.547q.274-.16.275.056Zm-.448.172V73.13l-.6.35v1.751Z"/>
        <path id="Path_146" data-name="Path 146" class="cls-9" d="M56.779,71.83a.451.451,0,0,1-.276.375l-.955.552c-.182.1-.273.085-.273-.059V70.773a.455.455,0,0,1,.279-.378l.949-.547c.183-.107.276-.087.276.057ZM56.331,72V70.25l-.6.349v1.752Z"/>
        <path id="Path_147" data-name="Path 147" class="cls-9" d="M57.7,71.514l-.45.259V70.11l-.177.1v-.047l.237-.784.39-.225Z"/>
        <path id="Path_148" data-name="Path 148" class="cls-9" d="M59.592,70.206a.448.448,0,0,1-.277.375l-.955.552c-.18.1-.271.085-.271-.059V69.148a.454.454,0,0,1,.277-.377l.949-.547c.185-.107.277-.087.277.057Zm-.448.172V68.626l-.6.349v1.752Z"/>
        <path id="Path_149" data-name="Path 149" class="cls-9" d="M60.514,69.89l-.451.259V68.486l-.176.1v-.047l.237-.784.39-.225Z"/>
        <path id="Path_150" data-name="Path 150" class="cls-9" d="M62.4,68.582a.447.447,0,0,1-.276.375l-.955.552c-.181.1-.273.085-.273-.059V67.525a.453.453,0,0,1,.279-.377l.949-.548c.184-.107.276-.087.276.057Zm-.448.172V67l-.6.349V69.1Z"/>
        <path id="Path_151" data-name="Path 151" class="cls-9" d="M65.221,67.172l-.45.26V65.769l-.176.1v-.047l.237-.784.389-.225Z"/>
        <path id="Path_152" data-name="Path 152" class="cls-9" d="M66.163,66.628l-.45.26V65.225l-.177.1v-.047l.237-.784.39-.225Z"/>
        <path id="Path_153" data-name="Path 153" class="cls-9" d="M68.054,65.321a.448.448,0,0,1-.277.374l-.955.552q-.271.157-.272-.058V64.264a.454.454,0,0,1,.278-.378l.949-.548c.184-.107.277-.087.277.057Zm-.449.171V63.74L67,64.09v1.752Z"/>
        <path id="Path_154" data-name="Path 154" class="cls-9" d="M68.976,65l-.451.26V63.6l-.175.1v-.046l.236-.785.39-.225Z"/>
        <path id="Path_155" data-name="Path 155" class="cls-9" d="M70.866,63.7a.45.45,0,0,1-.276.375l-.955.551c-.181.1-.272.086-.272-.058V62.64a.452.452,0,0,1,.278-.378l.949-.548c.184-.107.276-.087.276.057Zm-.448.171V62.116l-.6.35v1.752Z"/>
        <path id="Path_156" data-name="Path 156" class="cls-9" d="M72.737,62.617a.447.447,0,0,1-.276.374l-.955.552c-.182.1-.272.086-.272-.059V61.56a.452.452,0,0,1,.278-.378l.949-.548c.184-.107.276-.087.276.057Zm-.448.171V61.036l-.6.35v1.752Z"/>
        <path id="Path_157" data-name="Path 157" class="cls-9" d="M36.166,87.649l-.45.26V86.246l-.177.1V86.3l.237-.784.39-.225Z"/>
        <path id="Path_158" data-name="Path 158" class="cls-9" d="M37.107,87.105l-.45.26V85.7l-.177.1v-.047l.238-.785.389-.225Z"/>
        <path id="Path_159" data-name="Path 159" class="cls-9" d="M38.049,86.563l-.45.259V85.159l-.176.1v-.047l.236-.784.39-.225Z"/>
        <path id="Path_160" data-name="Path 160" class="cls-9" d="M39.939,85.255a.449.449,0,0,1-.276.375l-.955.552c-.181.1-.272.085-.272-.059V84.2a.453.453,0,0,1,.278-.377l.949-.547c.185-.107.276-.088.276.057Zm-.448.172V83.675l-.6.348v1.752Z"/>
        <path id="Path_161" data-name="Path 161" class="cls-9" d="M41.81,84.175a.452.452,0,0,1-.276.375l-.955.552c-.182.1-.272.084-.272-.059V83.117a.453.453,0,0,1,.278-.377l.949-.548q.276-.159.276.058Zm-.448.172V82.6l-.6.348v1.752Z"/>
        <path id="Path_162" data-name="Path 162" class="cls-9" d="M45.215,82.425l-.45.26V81.021l-.176.1v-.047l.236-.784.39-.225Z"/>
        <path id="Path_163" data-name="Path 163" class="cls-9" d="M47.1,81.117a.447.447,0,0,1-.275.375l-.955.552c-.182.1-.273.085-.273-.059V80.06a.452.452,0,0,1,.279-.377l.949-.548c.184-.107.275-.087.275.057Zm-.448.172V79.537l-.6.349v1.753Z"/>
        <path id="Path_164" data-name="Path 164" class="cls-9" d="M48.977,80.037a.448.448,0,0,1-.276.375l-.956.552c-.181.1-.271.085-.271-.059V78.98a.453.453,0,0,1,.278-.378l.949-.547c.184-.107.276-.087.276.057Zm-.449.172V78.457l-.6.349v1.752Z"/>
        <path id="Path_165" data-name="Path 165" class="cls-9" d="M50.848,78.957a.45.45,0,0,1-.276.375l-.955.551c-.182.1-.272.086-.272-.058V77.9a.45.45,0,0,1,.278-.376l.949-.549q.276-.159.276.057Zm-.449.172V77.376l-.6.35v1.751Z"/>
        <path id="Path_166" data-name="Path 166" class="cls-9" d="M59.6,73.9a.447.447,0,0,1-.275.375l-.955.552c-.182.1-.272.085-.272-.058V72.844a.451.451,0,0,1,.278-.377l.949-.548c.184-.106.275-.087.275.058Zm-.448.172V72.321l-.6.349v1.753Z"/>
        <path id="Path_167" data-name="Path 167" class="cls-9" d="M61.475,72.821a.45.45,0,0,1-.276.375l-.955.552c-.182.1-.272.085-.272-.058V71.764a.45.45,0,0,1,.278-.377l.949-.548c.184-.107.276-.087.276.057Zm-.448.172V71.241l-.6.349v1.752Z"/>
        <path id="Path_168" data-name="Path 168" class="cls-9" d="M62.4,72.5l-.449.26V71.1l-.177.1v-.047l.238-.784.388-.224Z"/>
        <path id="Path_169" data-name="Path 169" class="cls-9" d="M66.159,70.117a.451.451,0,0,1-.276.375l-.955.552c-.182.1-.273.085-.273-.059V69.06a.451.451,0,0,1,.279-.377l.949-.548c.183-.107.276-.087.276.056Zm-.448.172V68.537l-.606.349v1.752Z"/>
        <path id="Path_170" data-name="Path 170" class="cls-9" d="M68.03,69.037a.45.45,0,0,1-.276.375l-.955.551c-.181.1-.272.086-.272-.059V67.98a.452.452,0,0,1,.278-.378l.949-.548q.276-.159.276.057Zm-.448.171V67.456l-.605.35v1.752Z"/>
        <path id="Path_171" data-name="Path 171" class="cls-9" d="M68.952,68.72l-.45.26V67.316l-.176.1v-.047l.236-.784.39-.226Z"/>
        <path id="Path_172" data-name="Path 172" class="cls-9" d="M70.843,67.413a.451.451,0,0,1-.277.375l-.955.552c-.181.1-.271.085-.271-.059V66.355a.45.45,0,0,1,.277-.376l.949-.548c.184-.107.277-.088.277.057Zm-.449.172V65.832l-.6.35v1.752Z"/>
        <path id="Path_173" data-name="Path 173" class="cls-9" d="M72.714,66.333a.449.449,0,0,1-.277.375l-.955.551c-.18.1-.271.086-.271-.059V65.275a.453.453,0,0,1,.277-.377l.949-.548q.278-.159.277.057Zm-.448.171V64.752l-.6.35v1.752Z"/>
        <path id="Path_174" data-name="Path 174" class="cls-9" d="M74.585,65.253a.449.449,0,0,1-.276.374l-.956.552c-.18.1-.271.086-.271-.059V64.195a.455.455,0,0,1,.277-.378l.95-.547c.184-.107.276-.087.276.057Zm-.448.171V63.672l-.605.349v1.752Z"/>
        <path id="Path_175" data-name="Path 175" class="cls-9" d="M36.166,91.352l-.45.259V89.948l-.177.1V90l.237-.785.39-.225Z"/>
        <path id="Path_176" data-name="Path 176" class="cls-9" d="M37.107,90.809l-.45.259V89.4l-.177.1V89.46l.238-.784.389-.225Z"/>
        <path id="Path_177" data-name="Path 177" class="cls-9" d="M39,89.5a.45.45,0,0,1-.276.375l-.955.552c-.182.1-.273.085-.273-.059V88.443a.455.455,0,0,1,.278-.377l.95-.547c.184-.107.276-.087.276.057Zm-.448.172V87.921l-.6.349v1.751Z"/>
        <path id="Path_178" data-name="Path 178" class="cls-9" d="M40.869,88.421a.45.45,0,0,1-.276.375l-.955.551q-.271.158-.272-.058V87.363a.454.454,0,0,1,.278-.377l.949-.547q.276-.161.276.056Zm-.448.172V86.84l-.6.35v1.751Z"/>
        <path id="Path_179" data-name="Path 179" class="cls-9" d="M46.482,85.18a.449.449,0,0,1-.276.375l-.955.551c-.181.1-.272.085-.272-.058V84.122a.453.453,0,0,1,.278-.377l.949-.548c.185-.106.276-.087.276.058Zm-.448.172V83.6l-.6.348V85.7Z"/>
        <path id="Path_180" data-name="Path 180" class="cls-9" d="M48.353,84.1a.45.45,0,0,1-.276.375l-.955.551c-.181.1-.271.085-.271-.058V83.042a.452.452,0,0,1,.277-.377l.949-.548c.185-.106.276-.088.276.057Zm-.448.171V82.52l-.6.348V84.62Z"/>
        <path id="Path_181" data-name="Path 181" class="cls-9" d="M50.225,83.02a.451.451,0,0,1-.277.375l-.955.55c-.181.106-.271.086-.271-.058V81.962A.448.448,0,0,1,49,81.585l.949-.549c.185-.105.277-.087.277.058Zm-.449.171V81.439l-.6.349V83.54Z"/>
        <path id="Path_182" data-name="Path 182" class="cls-9" d="M52.1,81.94a.449.449,0,0,1-.277.374l-.955.551c-.18.105-.271.086-.271-.058V80.882a.453.453,0,0,1,.277-.378l.949-.548q.278-.159.277.058Zm-.449.17V80.358l-.6.35V82.46Z"/>
        <path id="Path_183" data-name="Path 183" class="cls-9" d="M53.018,81.622l-.451.26V80.219l-.175.1v-.046l.236-.785.39-.224Z"/>
        <path id="Path_184" data-name="Path 184" class="cls-9" d="M58.65,78.154a.447.447,0,0,1-.275.375l-.955.552q-.273.156-.273-.058V77.1a.452.452,0,0,1,.279-.377l.949-.548c.184-.107.275-.087.275.058Zm-.448.172V76.574l-.6.349v1.752Z"/>
        <path id="Path_185" data-name="Path 185" class="cls-9" d="M60.521,77.074a.448.448,0,0,1-.275.375L59.291,78c-.182.1-.272.085-.272-.059V76.017a.45.45,0,0,1,.278-.377l.949-.548c.184-.107.275-.087.275.057Zm-.448.172V75.494l-.6.349V77.6Z"/>
        <path id="Path_186" data-name="Path 186" class="cls-9" d="M62.393,75.994a.45.45,0,0,1-.276.375l-.955.551c-.182.105-.272.086-.272-.059V74.936a.45.45,0,0,1,.278-.376l.949-.549q.276-.159.276.057Zm-.449.171V74.413l-.6.35v1.752Z"/>
        <path id="Path_187" data-name="Path 187" class="cls-9" d="M66.135,73.833a.45.45,0,0,1-.276.375l-.955.552c-.181.1-.272.085-.272-.059V72.775a.455.455,0,0,1,.278-.377l.949-.547c.184-.107.276-.087.276.057ZM65.687,74V72.253l-.6.349v1.752Z"/>
        <path id="Path_188" data-name="Path 188" class="cls-9" d="M68.007,72.753a.453.453,0,0,1-.277.375l-.955.552c-.181.1-.272.085-.272-.059V71.695a.455.455,0,0,1,.278-.377l.949-.548c.184-.106.277-.086.277.058Zm-.448.172V71.173l-.606.348v1.752Z"/>
        <path id="Path_189" data-name="Path 189" class="cls-9" d="M68.928,72.436l-.45.26V71.033l-.176.1v-.047l.237-.784.389-.225Z"/>
        <path id="Path_190" data-name="Path 190" class="cls-9" d="M69.87,71.893l-.45.259V70.489l-.177.1v-.046l.237-.785.39-.225Z"/>
        <path id="Path_191" data-name="Path 191" class="cls-9" d="M71.761,70.586a.451.451,0,0,1-.277.375l-.955.551c-.181.1-.272.086-.272-.059V69.528a.457.457,0,0,1,.278-.378l.949-.548c.184-.1.277-.086.277.058Zm-.449.171V69l-.6.35v1.751Z"/>
        <path id="Path_192" data-name="Path 192" class="cls-9" d="M73.632,69.5a.449.449,0,0,1-.277.375l-.955.552c-.18.1-.271.085-.271-.059V68.448a.455.455,0,0,1,.277-.378l.949-.547q.277-.161.277.057Zm-.448.172V67.925l-.6.348v1.753Z"/>
        <path id="Path_193" data-name="Path 193" class="cls-9" d="M74.554,69.189l-.451.259V67.785l-.175.1V67.84l.236-.784.39-.225Z"/>
        <path id="Path_194" data-name="Path 194" class="cls-9" d="M37.115,94.291a.451.451,0,0,1-.276.375l-.955.551c-.182.1-.273.086-.273-.059V93.233a.453.453,0,0,1,.279-.377l.949-.548c.183-.106.276-.087.276.057Zm-.448.172V92.71l-.6.35v1.751Z"/>
        <path id="Path_195" data-name="Path 195" class="cls-9" d="M38.986,93.21a.447.447,0,0,1-.276.375l-.955.552c-.181.1-.272.086-.272-.059V92.153a.455.455,0,0,1,.278-.378l.949-.548c.184-.106.276-.086.276.058Zm-.448.172V91.63l-.6.349v1.752Z"/>
        <path id="Path_196" data-name="Path 196" class="cls-9" d="M39.908,92.894l-.45.259V91.49l-.177.1v-.046l.238-.785.389-.225Z"/>
        <path id="Path_197" data-name="Path 197" class="cls-9" d="M41.8,91.587a.451.451,0,0,1-.277.375l-.955.551c-.181.1-.272.086-.272-.059V90.529a.454.454,0,0,1,.278-.377l.949-.548q.278-.159.277.057Zm-.448.171V90.006l-.605.349v1.752Z"/>
        <path id="Path_198" data-name="Path 198" class="cls-9" d="M45.533,89.646l-.45.26V88.243l-.176.1V88.3l.237-.784.389-.226Z"/>
        <path id="Path_199" data-name="Path 199" class="cls-9" d="M47.424,88.339a.451.451,0,0,1-.277.375l-.955.552c-.18.1-.271.085-.271-.059V87.281A.454.454,0,0,1,46.2,86.9l.949-.548c.185-.106.277-.086.277.058Zm-.448.172V86.759l-.605.348v1.752Z"/>
        <path id="Path_200" data-name="Path 200" class="cls-9" d="M49.295,87.259a.452.452,0,0,1-.276.375l-.956.551c-.18.105-.271.085-.271-.059V86.2a.455.455,0,0,1,.277-.377l.95-.549q.276-.158.276.058Zm-.448.172V85.678l-.6.349v1.752Z"/>
        <path id="Path_201" data-name="Path 201" class="cls-9" d="M51.166,86.179a.452.452,0,0,1-.276.375l-.955.551c-.181.1-.272.085-.272-.059V85.121a.457.457,0,0,1,.277-.378l.95-.548c.184-.105.276-.087.276.058Zm-.448.171V84.6l-.6.349V86.7Z"/>
        <path id="Path_202" data-name="Path 202" class="cls-9" d="M52.088,85.861l-.45.26V84.458l-.176.1v-.046l.236-.785.39-.225Z"/>
        <path id="Path_203" data-name="Path 203" class="cls-9" d="M53.978,84.555a.451.451,0,0,1-.275.375l-.955.55c-.182.106-.272.086-.272-.058V83.5a.451.451,0,0,1,.278-.377l.949-.549c.184-.1.275-.087.275.058Zm-.448.171V82.974l-.6.349v1.752Z"/>
        <path id="Path_204" data-name="Path 204" class="cls-9" d="M54.9,84.237l-.449.26V82.834l-.177.1V82.89l.238-.785.388-.225Z"/>
        <path id="Path_205" data-name="Path 205" class="cls-9" d="M57.713,82.614l-.449.26V81.211l-.177.1v-.047l.237-.785.389-.225Z"/>
        <path id="Path_206" data-name="Path 206" class="cls-9" d="M58.654,82.07l-.449.26V80.667l-.177.1v-.046l.238-.785.388-.225Z"/>
        <path id="Path_207" data-name="Path 207" class="cls-9" d="M59.6,81.526l-.45.26V80.123l-.176.1v-.047l.237-.785.389-.225Z"/>
        <path id="Path_208" data-name="Path 208" class="cls-9" d="M61.486,80.22a.453.453,0,0,1-.275.375l-.955.551c-.182.1-.273.085-.273-.058V79.162a.453.453,0,0,1,.279-.377l.949-.548c.183-.106.275-.088.275.057Zm-.448.172V78.639l-.6.349V80.74Z"/>
        <path id="Path_209" data-name="Path 209" class="cls-9" d="M62.409,79.9l-.45.26V78.5l-.177.1v-.047l.237-.785.39-.225Z"/>
        <path id="Path_210" data-name="Path 210" class="cls-9" d="M66.183,77.509a.451.451,0,0,1-.277.375l-.955.551c-.182.105-.271.085-.271-.058V76.451a.451.451,0,0,1,.277-.377l.949-.549q.278-.158.277.058Zm-.449.172V75.928l-.6.349v1.752Z"/>
        <path id="Path_211" data-name="Path 211" class="cls-9" d="M68.054,76.429a.453.453,0,0,1-.277.375l-.955.551c-.181.1-.272.085-.272-.059V75.371a.454.454,0,0,1,.278-.377l.949-.549c.184-.105.277-.087.277.058Zm-.449.171V74.848L67,75.2v1.752Z"/>
        <path id="Path_212" data-name="Path 212" class="cls-9" d="M69.925,75.348a.449.449,0,0,1-.277.375l-.955.551c-.18.1-.271.085-.271-.058V74.291a.453.453,0,0,1,.277-.378l.949-.548q.277-.159.277.058Zm-.448.172V73.768l-.6.348v1.753Z"/>
        <path id="Path_213" data-name="Path 213" class="cls-9" d="M71.8,74.268a.452.452,0,0,1-.277.375l-.955.551c-.181.105-.271.085-.271-.058V73.21a.452.452,0,0,1,.277-.377l.949-.548c.184-.106.277-.087.277.058Zm-.448.172V72.688l-.605.348v1.752Z"/>
        <path id="Path_214" data-name="Path 214" class="cls-9" d="M73.667,73.188a.452.452,0,0,1-.276.375l-.956.551c-.18.105-.271.085-.271-.058V72.13a.45.45,0,0,1,.277-.377l.95-.548c.184-.106.276-.088.276.057Zm-.448.171V71.606l-.605.35v1.752Z"/>
        <path id="Path_215" data-name="Path 215" class="cls-9" d="M74.589,72.871l-.45.26V71.468l-.176.1v-.046l.236-.785.39-.225Z"/>
        <path id="Path_216" data-name="Path 216" class="cls-9" d="M36.166,98.757l-.45.259V97.354l-.177.1v-.047l.237-.785.39-.225Z"/>
        <path id="Path_217" data-name="Path 217" class="cls-9" d="M37.107,98.213l-.45.26V96.81l-.177.1v-.047l.238-.784.389-.225Z"/>
        <path id="Path_218" data-name="Path 218" class="cls-9" d="M38.049,97.669l-.45.26V96.266l-.176.1v-.046l.236-.785.39-.225Z"/>
        <path id="Path_219" data-name="Path 219" class="cls-9" d="M39.939,96.362a.448.448,0,0,1-.276.375l-.955.551c-.181.106-.272.086-.272-.058V95.305a.45.45,0,0,1,.278-.377l.949-.549c.185-.106.276-.087.276.057Zm-.448.171V94.781l-.6.35v1.752Z"/>
        <path id="Path_220" data-name="Path 220" class="cls-9" d="M41.81,95.282a.447.447,0,0,1-.276.374l-.955.552c-.182.105-.272.086-.272-.059V94.225a.452.452,0,0,1,.278-.378l.949-.548q.276-.159.276.057Zm-.448.171V93.7l-.6.35V95.8Z"/>
        <path id="Path_221" data-name="Path 221" class="cls-9" d="M42.732,94.965l-.45.26V93.561l-.176.1v-.046l.237-.785.389-.225Z"/>
        <path id="Path_222" data-name="Path 222" class="cls-9" d="M45.6,93.307l-.45.259V91.9l-.176.1v-.047l.237-.785.389-.225Z"/>
        <path id="Path_223" data-name="Path 223" class="cls-9" d="M47.5,92a.45.45,0,0,1-.275.375l-.956.552c-.181.1-.272.085-.272-.059V90.941a.452.452,0,0,1,.278-.376l.95-.548c.183-.107.275-.087.275.056Zm-.448.172V90.419l-.6.349V92.52Z"/>
        <path id="Path_224" data-name="Path 224" class="cls-9" d="M48.418,91.683l-.449.259V90.279l-.177.1v-.047l.237-.784.389-.226Z"/>
        <path id="Path_225" data-name="Path 225" class="cls-9" d="M49.359,91.139l-.449.259V89.735l-.177.1V89.79l.238-.784.388-.225Z"/>
        <path id="Path_226" data-name="Path 226" class="cls-9" d="M50.3,90.6l-.449.26V89.191l-.177.1v-.047l.237-.785.389-.225Z"/>
        <path id="Path_227" data-name="Path 227" class="cls-9" d="M52.191,89.288a.448.448,0,0,1-.275.375l-.955.551q-.273.158-.273-.058V88.23a.451.451,0,0,1,.279-.376l.949-.548c.184-.107.275-.088.275.056Zm-.447.172V87.707l-.6.35v1.752Z"/>
        <path id="Path_228" data-name="Path 228" class="cls-9" d="M57.756,86.075a.448.448,0,0,1-.276.375L56.525,87c-.181.1-.272.085-.272-.059V85.018a.453.453,0,0,1,.278-.377l.949-.548c.184-.107.276-.087.276.057Zm-.448.172V84.5l-.6.349V86.6Z"/>
        <path id="Path_229" data-name="Path 229" class="cls-9" d="M58.678,85.759l-.45.26V84.355l-.176.1V84.41l.237-.784.389-.225Z"/>
        <path id="Path_230" data-name="Path 230" class="cls-9" d="M60.569,84.451a.448.448,0,0,1-.276.375l-.955.552c-.182.1-.273.085-.273-.059V83.394a.452.452,0,0,1,.279-.377l.949-.548c.184-.107.276-.087.276.057Zm-.448.172V82.871l-.6.349v1.753Z"/>
        <path id="Path_231" data-name="Path 231" class="cls-9" d="M61.49,84.135l-.449.26V82.731l-.177.1v-.046L61.1,82l.388-.225Z"/>
        <path id="Path_232" data-name="Path 232" class="cls-9" d="M62.432,83.592l-.45.26V82.189l-.176.1v-.047l.237-.784.389-.226Z"/>
        <path id="Path_233" data-name="Path 233" class="cls-9" d="M65.245,81.968l-.45.259V80.565l-.177.1v-.047l.237-.784.39-.226Z"/>
        <path id="Path_234" data-name="Path 234" class="cls-9" d="M67.136,80.66a.448.448,0,0,1-.277.375l-.955.552c-.181.1-.271.085-.271-.059V79.6a.451.451,0,0,1,.277-.376l.949-.548c.185-.107.277-.087.277.057Zm-.449.172V79.08l-.6.349v1.752Z"/>
        <path id="Path_235" data-name="Path 235" class="cls-9" d="M69.007,79.58a.451.451,0,0,1-.277.375l-.955.552c-.181.1-.272.085-.272-.059V78.523a.454.454,0,0,1,.278-.378l.949-.547c.184-.107.277-.087.277.056Zm-.448.172V78l-.606.35V80.1Z"/>
        <path id="Path_236" data-name="Path 236" class="cls-9" d="M69.929,79.264l-.451.259V77.86l-.175.1v-.047l.236-.784.39-.226Z"/>
        <path id="Path_237" data-name="Path 237" class="cls-9" d="M71.819,77.956a.45.45,0,0,1-.276.375l-.955.552c-.181.1-.272.085-.272-.059V76.9a.453.453,0,0,1,.278-.377l.949-.547c.184-.107.276-.087.276.057Zm-.448.172V76.376l-.6.349v1.752Z"/>
        <path id="Path_238" data-name="Path 238" class="cls-9" d="M73.69,76.876a.448.448,0,0,1-.276.375l-.955.551c-.181.1-.272.086-.272-.059V75.818a.454.454,0,0,1,.278-.377l.949-.548c.185-.106.276-.087.276.057Zm-.448.172V75.295l-.6.35V77.4Z"/>
        <path id="Path_239" data-name="Path 239" class="cls-9" d="M36.166,102.459l-.45.26v-1.663l-.177.1v-.047l.237-.784.39-.224Z"/>
        <path id="Path_240" data-name="Path 240" class="cls-9" d="M38.057,101.151a.45.45,0,0,1-.277.375l-.955.552c-.181.1-.272.085-.272-.058v-1.926a.451.451,0,0,1,.278-.377l.949-.548c.184-.106.277-.087.277.058Zm-.449.172V99.571L37,99.92v1.753Z"/>
        <path id="Path_241" data-name="Path 241" class="cls-9" d="M39.928,100.071a.449.449,0,0,1-.277.375L38.7,101c-.18.1-.271.085-.271-.058V99.014a.45.45,0,0,1,.277-.377l.949-.548c.185-.107.277-.087.277.057Zm-.449.172V98.491l-.6.349v1.752Z"/>
        <path id="Path_242" data-name="Path 242" class="cls-9" d="M40.85,99.755l-.451.26V98.352l-.175.1v-.047l.236-.784.39-.224Z"/>
        <path id="Path_243" data-name="Path 243" class="cls-9" d="M46.873,96.061a.45.45,0,0,1-.275.375l-.956.551q-.271.158-.272-.057V95a.452.452,0,0,1,.278-.377l.95-.549c.183-.105.275-.087.275.058Zm-.448.171V94.48l-.6.35v1.752Z"/>
        <path id="Path_244" data-name="Path 244" class="cls-9" d="M47.795,95.745l-.45.26V94.342l-.176.1V94.4l.236-.784.39-.225Z"/>
        <path id="Path_245" data-name="Path 245" class="cls-9" d="M49.685,94.438a.45.45,0,0,1-.276.375l-.955.551c-.181.105-.271.085-.271-.058V93.38A.452.452,0,0,1,48.46,93l.949-.548c.185-.106.276-.087.276.058Zm-.448.171V92.857l-.6.349v1.752Z"/>
        <path id="Path_246" data-name="Path 246" class="cls-9" d="M51.557,93.357a.45.45,0,0,1-.276.375l-.955.551c-.182.106-.272.086-.272-.058V92.3a.45.45,0,0,1,.278-.377l.949-.549c.184-.105.276-.087.276.058Zm-.449.171V91.776l-.6.35v1.752Z"/>
        <path id="Path_247" data-name="Path 247" class="cls-9" d="M58.65,89.262a.449.449,0,0,1-.276.375l-.955.552q-.271.156-.272-.059V88.2a.452.452,0,0,1,.278-.377l.949-.548c.185-.106.276-.087.276.058Zm-.448.172V87.682l-.6.348v1.752Z"/>
        <path id="Path_248" data-name="Path 248" class="cls-9" d="M60.521,88.182a.452.452,0,0,1-.276.375l-.955.551c-.182.1-.272.085-.272-.058V87.124a.452.452,0,0,1,.278-.377l.949-.548c.184-.106.276-.088.276.057Zm-.448.172V86.6l-.605.348V88.7Z"/>
        <path id="Path_249" data-name="Path 249" class="cls-9" d="M62.393,87.1a.451.451,0,0,1-.277.375l-.955.55q-.271.158-.271-.058V86.044a.451.451,0,0,1,.277-.378l.949-.548c.185-.1.277-.087.277.058Zm-.449.171V85.52l-.6.35v1.752Z"/>
        <path id="Path_250" data-name="Path 250" class="cls-9" d="M66.135,84.94a.448.448,0,0,1-.277.375l-.955.552c-.18.105-.271.085-.271-.058V83.883a.452.452,0,0,1,.277-.377l.949-.548q.277-.159.277.058Zm-.449.172V83.36l-.6.349v1.752Z"/>
        <path id="Path_251" data-name="Path 251" class="cls-9" d="M68.006,83.86a.45.45,0,0,1-.276.375l-.956.552c-.18.1-.271.085-.271-.058V82.8a.452.452,0,0,1,.277-.377l.95-.548q.276-.16.276.057Zm-.448.172V82.279l-.6.35v1.752Z"/>
        <path id="Path_252" data-name="Path 252" class="cls-9" d="M68.928,83.544l-.451.26V82.141l-.175.1v-.047l.236-.784.39-.225Z"/>
        <path id="Path_253" data-name="Path 253" class="cls-9" d="M70.818,82.236a.446.446,0,0,1-.276.375l-.955.552c-.181.1-.272.085-.272-.058V81.179a.451.451,0,0,1,.278-.377l.949-.548c.185-.106.276-.087.276.057Zm-.448.172V80.656l-.6.349v1.752Z"/>
        <path id="Path_254" data-name="Path 254" class="cls-9" d="M71.74,81.92l-.45.26V80.517l-.176.1v-.047l.237-.784.389-.224Z"/>
        <path id="Path_255" data-name="Path 255" class="cls-9" d="M73.631,80.612a.448.448,0,0,1-.276.375l-.955.552q-.271.157-.272-.059V79.555a.453.453,0,0,1,.278-.377l.949-.548c.184-.107.276-.087.276.058Zm-.448.172V79.032l-.6.349v1.752Z"/>
        <path id="Path_256" data-name="Path 256" class="cls-9" d="M74.553,80.3l-.451.26V78.893l-.175.1v-.046l.236-.785.39-.224Z"/>
        <path id="Path_257" data-name="Path 257" class="cls-9" d="M37.115,105.4a.45.45,0,0,1-.276.375l-.955.552c-.182.105-.273.085-.273-.058V104.34a.452.452,0,0,1,.279-.377l.949-.548c.183-.106.276-.087.276.058Zm-.448.172v-1.752l-.6.349v1.753Z"/>
        <path id="Path_258" data-name="Path 258" class="cls-9" d="M38.037,105.081l-.45.26v-1.663l-.176.1v-.047l.236-.784.39-.224Z"/>
        <path id="Path_259" data-name="Path 259" class="cls-9" d="M45.924,100.527l-.45.26V99.124l-.176.1V99.18l.236-.785.39-.225Z"/>
        <path id="Path_260" data-name="Path 260" class="cls-9" d="M47.814,99.221a.448.448,0,0,1-.275.374l-.956.551q-.271.157-.272-.058V98.163a.456.456,0,0,1,.279-.378l.949-.548c.184-.106.275-.087.275.058Zm-.448.171V97.64l-.6.349v1.752Z"/>
        <path id="Path_261" data-name="Path 261" class="cls-9" d="M48.736,98.9l-.45.26V97.5l-.176.1v-.046l.237-.786.389-.224Z"/>
        <path id="Path_262" data-name="Path 262" class="cls-9" d="M50.627,97.6a.453.453,0,0,1-.275.375l-.957.551c-.18.1-.271.085-.271-.058V96.539a.455.455,0,0,1,.277-.377l.951-.548c.183-.106.275-.088.275.057Zm-.448.172V96.016l-.6.349v1.752Z"/>
        <path id="Path_263" data-name="Path 263" class="cls-9" d="M51.549,97.279l-.45.261V95.876l-.176.1v-.047l.237-.786.389-.224Z"/>
        <path id="Path_264" data-name="Path 264" class="cls-9" d="M57.725,93.714l-.45.26V92.31l-.176.1v-.046l.237-.785.389-.225Z"/>
        <path id="Path_265" data-name="Path 265" class="cls-9" d="M59.615,92.407a.45.45,0,0,1-.275.375l-.955.551c-.182.105-.273.086-.273-.059V91.35a.454.454,0,0,1,.279-.378l.949-.548q.274-.159.275.057Zm-.447.171V90.826l-.606.35v1.752Z"/>
        <path id="Path_266" data-name="Path 266" class="cls-9" d="M60.537,92.09l-.449.26V90.686l-.177.1v-.047l.237-.785.389-.225Z"/>
        <path id="Path_267" data-name="Path 267" class="cls-9" d="M62.428,90.783a.45.45,0,0,1-.276.375l-.955.552q-.271.158-.272-.06V89.726a.452.452,0,0,1,.278-.377l.949-.548q.276-.161.276.056Zm-.448.172V89.2l-.6.35V91.3Z"/>
        <path id="Path_268" data-name="Path 268" class="cls-9" d="M66.158,88.63a.452.452,0,0,1-.276.375l-.955.551c-.181.1-.272.086-.272-.059V87.572a.456.456,0,0,1,.279-.378l.948-.548q.276-.158.276.058Zm-.448.171V87.049l-.6.349V89.15Z"/>
        <path id="Path_269" data-name="Path 269" class="cls-9" d="M67.08,88.314l-.45.259V86.91l-.176.1v-.047l.236-.785.39-.225Z"/>
        <path id="Path_270" data-name="Path 270" class="cls-9" d="M68.971,87.006a.451.451,0,0,1-.277.375l-.955.552c-.18.1-.271.085-.271-.059V85.948a.453.453,0,0,1,.277-.377l.949-.548c.185-.106.277-.088.277.057Zm-.449.172V85.426l-.6.348v1.752Z"/>
        <path id="Path_271" data-name="Path 271" class="cls-9" d="M69.893,86.69l-.451.259V85.286l-.175.1v-.047l.236-.784.39-.226Z"/>
        <path id="Path_272" data-name="Path 272" class="cls-9" d="M71.783,85.382a.453.453,0,0,1-.275.375l-.956.552c-.181.1-.272.085-.272-.059V84.324a.455.455,0,0,1,.279-.377l.949-.548c.183-.106.275-.086.275.058Zm-.448.172V83.8l-.6.348V85.9Z"/>
        <path id="Path_273" data-name="Path 273" class="cls-9" d="M72.705,85.065l-.45.26V83.662l-.176.1v-.047l.236-.784.39-.225Z"/>
        <path id="Path_274" data-name="Path 274" class="cls-9" d="M74.6,83.758a.451.451,0,0,1-.276.375l-.956.552c-.18.1-.271.085-.271-.059V82.7a.453.453,0,0,1,.278-.378l.949-.548c.184-.106.276-.086.276.058Zm-.449.172V82.178l-.6.348v1.752Z"/>
        <path id="Path_275" data-name="Path 275" class="cls-9" d="M36.166,109.863l-.45.26V108.46l-.177.1v-.046l.237-.785.39-.224Z"/>
        <path id="Path_276" data-name="Path 276" class="cls-9" d="M38.057,108.557a.451.451,0,0,1-.277.374l-.955.551q-.271.157-.272-.058V107.5a.452.452,0,0,1,.278-.378l.949-.548c.184-.106.277-.087.277.058Zm-.449.171v-1.752l-.605.348v1.753Z"/>
        <path id="Path_277" data-name="Path 277" class="cls-9" d="M38.978,108.239l-.45.26v-1.663l-.176.1v-.046l.237-.786.389-.224Z"/>
        <path id="Path_278" data-name="Path 278" class="cls-9" d="M40.869,106.933a.449.449,0,0,1-.276.374l-.955.551q-.271.157-.272-.058v-1.925a.454.454,0,0,1,.278-.378l.949-.548c.184-.1.276-.087.276.058Zm-.448.17v-1.751l-.6.349v1.752Z"/>
        <path id="Path_279" data-name="Path 279" class="cls-9" d="M41.791,106.615l-.45.26v-1.663l-.176.1v-.047l.236-.786.39-.224Z"/>
        <path id="Path_280" data-name="Path 280" class="cls-9" d="M43.682,105.309a.451.451,0,0,1-.277.375l-.955.55c-.181.106-.271.086-.271-.057v-1.926a.448.448,0,0,1,.277-.377l.949-.548c.185-.106.277-.088.277.057Zm-.449.171v-1.752l-.6.349v1.752Z"/>
        <path id="Path_281" data-name="Path 281" class="cls-9" d="M46.555,103.649a.448.448,0,0,1-.276.375l-.956.552c-.18.105-.271.085-.271-.058v-1.926a.451.451,0,0,1,.278-.377l.949-.548c.184-.107.276-.087.276.058Zm-.449.172v-1.752l-.6.349v1.752Z"/>
        <path id="Path_282" data-name="Path 282" class="cls-9" d="M48.426,102.569a.45.45,0,0,1-.276.375l-.955.551c-.181.106-.272.086-.272-.057v-1.926a.452.452,0,0,1,.278-.377l.949-.549q.276-.159.276.058Zm-.449.172v-1.753l-.6.35v1.752Z"/>
        <path id="Path_283" data-name="Path 283" class="cls-9" d="M50.3,101.489a.45.45,0,0,1-.276.375l-.956.551c-.18.1-.271.086-.271-.059v-1.924a.452.452,0,0,1,.278-.377l.949-.549q.276-.159.276.058Zm-.448.171V99.908l-.6.35v1.752Z"/>
        <path id="Path_284" data-name="Path 284" class="cls-9" d="M52.168,100.408a.448.448,0,0,1-.275.375l-.956.552q-.271.158-.272-.059V99.352a.454.454,0,0,1,.278-.378l.95-.548c.183-.107.275-.087.275.057Zm-.448.172V98.828l-.6.349v1.753Z"/>
        <path id="Path_285" data-name="Path 285" class="cls-9" d="M57.732,97.2a.446.446,0,0,1-.275.374l-.955.552q-.273.157-.273-.058V96.139a.454.454,0,0,1,.279-.378l.949-.548c.184-.107.275-.087.275.057Zm-.448.171V95.615l-.6.35v1.752Z"/>
        <path id="Path_286" data-name="Path 286" class="cls-9" d="M59.6,96.115a.446.446,0,0,1-.275.375l-.955.552c-.182.1-.272.085-.272-.059V95.059a.452.452,0,0,1,.278-.378l.949-.548c.184-.107.275-.087.275.057Zm-.448.172V94.535l-.6.349v1.753Z"/>
        <path id="Path_287" data-name="Path 287" class="cls-9" d="M61.475,95.035a.448.448,0,0,1-.276.375l-.955.552c-.182.1-.272.085-.272-.059V93.977a.451.451,0,0,1,.278-.376l.949-.548c.184-.107.276-.087.276.057Zm-.448.172V93.455l-.6.349v1.752Z"/>
        <path id="Path_288" data-name="Path 288" class="cls-9" d="M62.4,94.719l-.449.26V93.315l-.177.1V93.37l.238-.784.388-.225Z"/>
        <path id="Path_289" data-name="Path 289" class="cls-9" d="M65.21,93.1l-.45.26V91.691l-.177.1v-.047l.237-.784.39-.225Z"/>
        <path id="Path_290" data-name="Path 290" class="cls-9" d="M66.151,92.552l-.45.259V91.148l-.176.1V91.2l.237-.785.389-.225Z"/>
        <path id="Path_291" data-name="Path 291" class="cls-9" d="M68.042,91.244a.451.451,0,0,1-.276.375l-.956.551q-.271.158-.271-.058V90.186a.45.45,0,0,1,.277-.376l.95-.548c.183-.107.276-.088.276.056Zm-.448.172V89.663l-.605.35v1.752Z"/>
        <path id="Path_292" data-name="Path 292" class="cls-9" d="M68.963,90.928l-.449.26V89.524l-.177.1v-.047l.237-.784.389-.226Z"/>
        <path id="Path_293" data-name="Path 293" class="cls-9" d="M70.854,89.62a.448.448,0,0,1-.276.375l-.955.552c-.182.1-.272.085-.272-.059V88.563a.453.453,0,0,1,.278-.378l.949-.547c.184-.107.276-.087.276.057Zm-.448.172V88.04l-.6.349v1.752Z"/>
        <path id="Path_294" data-name="Path 294" class="cls-9" d="M72.726,88.54a.449.449,0,0,1-.277.375l-.955.551q-.271.157-.271-.058V87.482a.451.451,0,0,1,.277-.377l.949-.547q.278-.161.277.056Zm-.449.172V86.959l-.6.35V89.06Z"/>
        <path id="Path_295" data-name="Path 295" class="cls-9" d="M74.6,87.46a.447.447,0,0,1-.277.374l-.955.552c-.18.1-.271.086-.271-.059V86.4a.455.455,0,0,1,.277-.378l.949-.547q.277-.159.277.057Zm-.449.171V85.879l-.6.35V87.98Z"/>
        <path id="Path_296" data-name="Path 296" class="cls-9" d="M36.166,113.565l-.45.261v-1.664l-.177.1v-.047l.237-.785.39-.225Z"/>
        <path id="Path_297" data-name="Path 297" class="cls-9" d="M38.057,112.259a.453.453,0,0,1-.277.375l-.955.551q-.271.158-.272-.058V111.2a.452.452,0,0,1,.278-.377l.949-.549c.184-.105.277-.086.277.058Zm-.449.172v-1.753l-.605.349v1.752Z"/>
        <path id="Path_298" data-name="Path 298" class="cls-9" d="M39.928,111.179a.449.449,0,0,1-.277.374l-.955.551c-.18.105-.271.086-.271-.058v-1.925a.455.455,0,0,1,.277-.378l.949-.548q.277-.159.277.058Zm-.449.171V109.6l-.6.349V111.7Z"/>
        <path id="Path_299" data-name="Path 299" class="cls-9" d="M45.594,108.122l-.45.26v-1.663l-.176.1v-.046l.237-.785.389-.224Z"/>
        <path id="Path_300" data-name="Path 300" class="cls-9" d="M47.484,106.815a.448.448,0,0,1-.275.375l-.955.551c-.182.106-.273.086-.273-.057v-1.926a.451.451,0,0,1,.279-.377l.949-.549c.184-.105.275-.087.275.058Zm-.448.171v-1.752l-.6.35v1.752Z"/>
        <path id="Path_301" data-name="Path 301" class="cls-9" d="M48.406,106.5l-.45.26V105.1l-.176.1v-.047l.237-.784.389-.225Z"/>
        <path id="Path_302" data-name="Path 302" class="cls-9" d="M50.3,105.191a.45.45,0,0,1-.276.375l-.956.552c-.18.105-.271.085-.271-.058v-1.926a.453.453,0,0,1,.278-.377l.949-.548q.276-.159.276.058Zm-.448.172v-1.752l-.6.349v1.752Z"/>
        <path id="Path_303" data-name="Path 303" class="cls-9" d="M51.219,104.875l-.45.26v-1.663l-.176.1v-.047l.237-.784.389-.224Z"/>
        <path id="Path_304" data-name="Path 304" class="cls-9" d="M56.783,101.662l-.449.26v-1.663l-.177.1v-.046l.237-.785.389-.224Z"/>
        <path id="Path_305" data-name="Path 305" class="cls-9" d="M58.674,100.355a.45.45,0,0,1-.276.375l-.955.551c-.181.105-.272.085-.272-.058V99.3a.454.454,0,0,1,.278-.378l.949-.548q.276-.159.276.058Zm-.447.171V98.774l-.606.349v1.753Z"/>
        <path id="Path_306" data-name="Path 306" class="cls-9" d="M60.545,99.274a.448.448,0,0,1-.276.375l-.955.552c-.181.105-.272.085-.272-.058V98.217a.453.453,0,0,1,.278-.377l.949-.548c.184-.107.276-.087.276.058Zm-.448.172V97.694l-.6.349v1.752Z"/>
        <path id="Path_307" data-name="Path 307" class="cls-9" d="M62.416,98.194a.45.45,0,0,1-.275.375l-.956.552c-.181.1-.272.085-.272-.058V97.137a.452.452,0,0,1,.278-.377l.95-.548q.275-.16.275.057Zm-.447.172V96.613l-.606.35v1.752Z"/>
        <path id="Path_308" data-name="Path 308" class="cls-9" d="M65.21,96.8l-.45.26V95.394l-.177.1v-.047l.237-.785.39-.224Z"/>
        <path id="Path_309" data-name="Path 309" class="cls-9" d="M67.1,95.49a.451.451,0,0,1-.277.375l-.955.551c-.182.105-.272.086-.272-.058V94.433a.45.45,0,0,1,.278-.377l.949-.548c.184-.107.277-.088.277.057Zm-.449.172V93.909l-.6.35v1.752Z"/>
        <path id="Path_310" data-name="Path 310" class="cls-9" d="M68.971,94.41a.45.45,0,0,1-.276.375l-.955.551c-.181.105-.272.086-.272-.059V93.352a.45.45,0,0,1,.278-.376l.949-.549q.276-.159.276.057Zm-.448.171V92.829l-.605.35v1.752Z"/>
        <path id="Path_311" data-name="Path 311" class="cls-9" d="M70.843,93.33a.448.448,0,0,1-.277.374l-.955.552c-.181.1-.271.085-.271-.059V92.273a.453.453,0,0,1,.277-.378l.949-.548c.184-.107.277-.087.277.057Zm-.449.171V91.749l-.6.349v1.753Z"/>
        <path id="Path_312" data-name="Path 312" class="cls-9" d="M71.765,93.013l-.451.26V91.609l-.175.1v-.046l.236-.785.39-.225Z"/>
        <path id="Path_313" data-name="Path 313" class="cls-9" d="M73.655,91.706a.447.447,0,0,1-.276.374l-.955.552c-.181.1-.272.086-.272-.059V90.648a.457.457,0,0,1,.278-.378l.949-.547q.276-.159.276.057Zm-.448.171V90.125l-.605.35v1.752Z"/>
        <path id="Path_314" data-name="Path 314" class="cls-9" d="M36.166,117.269l-.45.259v-1.663l-.177.1v-.047l.237-.784.39-.225Z"/>
        <path id="Path_315" data-name="Path 315" class="cls-9" d="M37.107,116.725l-.45.259v-1.663l-.177.1v-.046l.238-.785.389-.225Z"/>
        <path id="Path_316" data-name="Path 316" class="cls-9" d="M39,115.418a.452.452,0,0,1-.276.375l-.955.551c-.182.1-.273.086-.273-.059V114.36a.457.457,0,0,1,.278-.378l.95-.547q.276-.159.276.057Zm-.448.171v-1.752l-.6.349v1.753Z"/>
        <path id="Path_317" data-name="Path 317" class="cls-9" d="M40.869,114.337a.45.45,0,0,1-.276.375l-.955.552c-.181.1-.272.085-.272-.059v-1.926a.457.457,0,0,1,.278-.377l.949-.548c.184-.106.276-.086.276.058Zm-.448.172v-1.752l-.6.348v1.753Z"/>
        <path id="Path_318" data-name="Path 318" class="cls-9" d="M42.74,113.257a.451.451,0,0,1-.276.375l-.955.552c-.182.1-.272.085-.272-.059V112.2a.453.453,0,0,1,.278-.377l.949-.548c.184-.106.276-.086.276.058Zm-.448.172v-1.752l-.6.348v1.752Z"/>
        <path id="Path_319" data-name="Path 319" class="cls-9" d="M43.662,112.94l-.45.26v-1.663l-.176.1v-.047l.236-.784.39-.225Z"/>
        <path id="Path_320" data-name="Path 320" class="cls-9" d="M46.535,111.281l-.45.26v-1.663l-.176.1v-.045l.237-.786.389-.224Z"/>
        <path id="Path_321" data-name="Path 321" class="cls-9" d="M48.426,109.975a.449.449,0,0,1-.276.374l-.955.551q-.271.157-.272-.058v-1.925a.455.455,0,0,1,.278-.378l.949-.548q.276-.159.276.058Zm-.449.171v-1.752l-.6.349V110.5Z"/>
        <path id="Path_322" data-name="Path 322" class="cls-9" d="M50.3,108.894a.45.45,0,0,1-.276.375l-.956.551c-.18.105-.271.086-.271-.058v-1.925a.454.454,0,0,1,.278-.378l.949-.548q.276-.159.276.058Zm-.448.171v-1.751l-.6.348v1.753Z"/>
        <path id="Path_323" data-name="Path 323" class="cls-9" d="M51.219,108.577l-.45.26v-1.663l-.176.1v-.047l.237-.784.389-.224Z"/>
        <path id="Path_324" data-name="Path 324" class="cls-9" d="M57.7,104.835l-.45.26v-1.663l-.177.1v-.047l.237-.784.39-.224Z"/>
        <path id="Path_325" data-name="Path 325" class="cls-9" d="M59.592,103.527a.447.447,0,0,1-.277.375l-.955.552c-.18.1-.271.086-.271-.058v-1.925a.453.453,0,0,1,.277-.378l.949-.548q.278-.159.277.058Zm-.448.172v-1.752l-.6.35v1.752Z"/>
        <path id="Path_326" data-name="Path 326" class="cls-9" d="M60.514,103.211l-.451.26v-1.663l-.176.1v-.046l.237-.785.39-.224Z"/>
        <path id="Path_327" data-name="Path 327" class="cls-9" d="M62.4,101.9a.45.45,0,0,1-.276.375l-.955.551c-.181.1-.273.086-.273-.058v-1.925a.451.451,0,0,1,.279-.377l.949-.549q.276-.159.276.058Zm-.448.171v-1.752l-.6.35v1.752Z"/>
        <path id="Path_328" data-name="Path 328" class="cls-9" d="M65.221,100.493l-.45.26V99.09l-.176.1v-.046l.237-.785.389-.224Z"/>
        <path id="Path_329" data-name="Path 329" class="cls-9" d="M66.163,99.949l-.45.26V98.546l-.177.1V98.6l.237-.786.39-.224Z"/>
        <path id="Path_330" data-name="Path 330" class="cls-9" d="M68.054,98.643a.453.453,0,0,1-.277.375l-.955.55c-.181.106-.272.086-.272-.058V97.585a.453.453,0,0,1,.278-.377l.949-.549c.184-.1.277-.087.277.058Zm-.449.172V97.061l-.605.35v1.752Z"/>
        <path id="Path_331" data-name="Path 331" class="cls-9" d="M68.976,98.326l-.451.26V96.922l-.175.1v-.047l.236-.785.39-.224Z"/>
        <path id="Path_332" data-name="Path 332" class="cls-9" d="M70.866,97.019a.452.452,0,0,1-.276.375l-.955.55c-.181.106-.272.086-.272-.057V95.961a.45.45,0,0,1,.278-.377l.949-.548c.184-.106.276-.088.276.057Zm-.448.171V95.438l-.6.349v1.752Z"/>
        <path id="Path_333" data-name="Path 333" class="cls-9" d="M72.737,95.939a.452.452,0,0,1-.276.375l-.955.55c-.182.106-.272.086-.272-.058V94.881a.45.45,0,0,1,.278-.377l.949-.549c.184-.105.276-.087.276.058Zm-.448.171V94.357l-.6.35v1.752Z"/>
        <path id="Path_334" data-name="Path 334" class="cls-9" d="M73.659,95.621l-.45.26V94.218l-.176.1v-.047l.236-.785.39-.224Z"/>
        <g id="Group_25" data-name="Group 25" class="cls-13">
          <g id="Group_17" data-name="Group 17">
            <path id="Path_335" data-name="Path 335" class="cls-6" d="M71.753,35.291l-5.015,2.9c-.085.049-.153.02-.153-.064v-2.6a.317.317,0,0,1,.153-.241l5.015-2.9c.085-.049.153-.02.153.065v.418l.9-.517c.085-.048.153-.019.153.065v1.455a.315.315,0,0,1-.153.241l-.9.518v.419A.317.317,0,0,1,71.753,35.291Zm-4.862,2.5,4.71-2.72v-.419a.318.318,0,0,1,.152-.241l.9-.518V32.746l-.9.518c-.084.049-.152.019-.152-.065V32.78L66.891,35.5Z"/>
          </g>
          <g id="Group_18" data-name="Group 18">
            <path id="Path_336" data-name="Path 336" class="cls-6" d="M36.952,55.59l-.994.574V53.235l.994-.573Z"/>
          </g>
          <g id="Group_19" data-name="Group 19">
            <path id="Path_337" data-name="Path 337" class="cls-6" d="M38.558,54.663l-.994.574V53.1l.994-.573Z"/>
          </g>
          <g id="Group_20" data-name="Group 20">
            <path id="Path_338" data-name="Path 338" class="cls-6" d="M40.162,53.736l-.993.574v-.956l.993-.573Z"/>
          </g>
          <g id="Group_21" data-name="Group 21">
            <path id="Path_339" data-name="Path 339" class="cls-6" d="M44.84,49.972c.159.067.159.325,0,.576s-.417.4-.576.333-.16-.325,0-.576S44.681,49.9,44.84,49.972Z"/>
          </g>
          <g id="Group_22" data-name="Group 22">
            <path id="Path_340" data-name="Path 340" class="cls-6" d="M45.5,49.356a.184.184,0,0,1-.162.027c-.418-.177-1.147.244-1.565.9-.089.142-.235.226-.325.188s-.089-.184,0-.326c.592-.932,1.623-1.528,2.214-1.277.09.038.09.183,0,.324A.466.466,0,0,1,45.5,49.356Z"/>
          </g>
          <g id="Group_23" data-name="Group 23">
            <path id="Path_341" data-name="Path 341" class="cls-6" d="M46.181,48.276a.191.191,0,0,1-.162.027c-.784-.331-2.151.457-2.935,1.695-.089.141-.234.225-.324.187s-.089-.184,0-.325a5.4,5.4,0,0,1,1.792-1.776,2.058,2.058,0,0,1,1.791-.292c.09.038.09.183,0,.324A.483.483,0,0,1,46.181,48.276Z"/>
          </g>
          <g id="Group_24" data-name="Group 24">
            <path id="Path_342" data-name="Path 342" class="cls-6" d="M68.267,36.713l-1.02.589V35.578l1.02-.589Z"/>
          </g>
        </g>
      </g>
    </g>
    <g id="Group_28" data-name="Group 28">
      <path id="Path_343" data-name="Path 343" class="cls-8" d="M132.76,46.16a.724.724,0,0,1-.2.59l.01.02-.051.02a.19.19,0,0,1-.079.04l-1.65.78c.15-.1.22-.31.22-.64V41.94a1.924,1.924,0,0,0-1.09-1.73l-2.45-1.41c-.65-.37-1.01-.3-1.08.23l-2.49,3.11-1.75.81,7.619-9.53v-.27l-1.219-.7,1.75-.81,1.219.7v.27l-4.75,5.94,1.541-.7v.02c.18-.15.47-.13.91.12l2.45,1.41a1.938,1.938,0,0,1,1.09,1.74Z"/>
      <path id="Path_344" data-name="Path 344" class="cls-8" d="M126.06,30.29v5.03a1.173,1.173,0,0,1-.03.29l-.011.01-.339.43-1.58.7a.768.768,0,0,0,.21-.63V31.1a1.923,1.923,0,0,0-1.1-1.73l-2.45-1.42c-.73-.42-1.1-.27-1.1.47v5.02a1.767,1.767,0,0,0,.51,1.27v3.98c0,.41-.1.67-.29.77a.218.218,0,0,0-.05.03l-1.67.77a.886.886,0,0,0,.26-.76V27.91a2.263,2.263,0,0,0-1.28-2.05l-4.4-2.54a1.45,1.45,0,0,0-.88-.26h-.01l-.01-.01,1.6-.81.02.09c.21-.15.55-.09,1.03.18l4.4,2.54a2.274,2.274,0,0,1,1.28,2.05v.52l1.4-.59.01.03c.17-.19.47-.18.93.08l2.45,1.42A1.934,1.934,0,0,1,126.06,30.29Z"/>
      <path id="Path_345" data-name="Path 345" class="cls-8" d="M111.45,26.53v7.73a.381.381,0,0,1-.11.16v.01h-.01a.338.338,0,0,1-.19.09l-1.61.77c.18-.12.27-.37.27-.77V28a2.054,2.054,0,0,0-.58-1.47v-.02l-.04-.02a2.749,2.749,0,0,0-.661-.52l-3.459-2,.14-3.15,1.67.97-.06,1.38,3.459,1.99A2.421,2.421,0,0,1,111.45,26.53Z"/>
      <path id="Path_346" data-name="Path 346" class="cls-8" d="M111.45,20.76v1.86l-1.75.81V21.57l-6.47-3.74,1.75-.811Z"/>
      <path id="Path_347" data-name="Path 347" class="cls-8" d="M107.72,30.98v1.81l-2.63-1.521V28.53L103,27.32l1.75-.81,2.09,1.21v2.75Z"/>
      <path id="Path_348" data-name="Path 348" class="cls-8" d="M109.22,26.53c0-.01,0-.01-.01-.02a.077.077,0,0,0-.03-.02,2.749,2.749,0,0,0-.661-.52l-3.459-2,.14-3.15,1.67.97,2.83,1.64V21.57l-6.47-3.74L103,24.61l4.72,2.72v5.46l-2.63-1.52V28.53L103,27.32V30.6a2.236,2.236,0,0,0,1.26,2.02l4.259,2.46c.441.25.761.33.981.22.01,0,.019-.01.03-.01.18-.12.27-.37.27-.77V28A2.054,2.054,0,0,0,109.22,26.53Z"/>
      <path id="Path_349" data-name="Path 349" class="cls-8" d="M117.14,25.86l-4.4-2.54a1.45,1.45,0,0,0-.88-.26h-.01c-.27.06-.4.34-.4.82v11.6a2.246,2.246,0,0,0,1.27,2.02l4.42,2.56a1.471,1.471,0,0,0,.86.26h.03l.13-.06a.886.886,0,0,0,.26-.76V27.91A2.263,2.263,0,0,0,117.14,25.86Zm-3.6-.25,1.75,1.01,1.05.6V37.77l-2.8-1.61Z"/>
      <path id="Path_350" data-name="Path 350" class="cls-8" d="M116.34,35.96v1.81l-2.8-1.609V25.61l1.75,1.01v8.73Z"/>
      <path id="Path_351" data-name="Path 351" class="cls-8" d="M129.92,40.21l-2.45-1.41c-.65-.37-1.01-.3-1.08.23a.822.822,0,0,0-.02.23v5.03a1.916,1.916,0,0,0,1.1,1.73l2.45,1.41a1.03,1.03,0,0,0,.81.21l.06-.03c.15-.1.22-.31.22-.64V41.94A1.924,1.924,0,0,0,129.92,40.21Zm-.43,5.65-1.62-.93V40.36l1.62.93Zm-.94-13.41-2.52,3.16-.011.01-.339.43-4.75,5.94v.25l1.22.71,7.619-9.53v-.27Zm-5.01-2.86a2.7,2.7,0,0,0-.33-.22l-2.45-1.42c-.73-.42-1.1-.27-1.1.47v5.02a1.767,1.767,0,0,0,.51,1.27,2.352,2.352,0,0,0,.59.46l2.45,1.42a2.448,2.448,0,0,0,.33.16.6.6,0,0,0,.54.01h.01l.01-.01a.768.768,0,0,0,.21-.63V31.1A1.818,1.818,0,0,0,123.54,29.59Zm-.75,5.43-1.62-.94V29.51l1.62.93Z"/>
      <path id="Path_352" data-name="Path 352" class="cls-8" d="M129.49,41.29v4.57l-1.62-.931V40.36Z"/>
      <path id="Path_353" data-name="Path 353" class="cls-8" d="M122.79,30.44V35.02l-1.62-.939V29.51Z"/>
    </g>
    <path id="Path_354" data-name="Path 354" class="cls-14" d="M78.308,136.66l23.859,22.173L115.25,149.5,96.991,135.24l-7.555-.783L103,147.833l-16.54-9.818Z"/>
    <g id="Group_29" data-name="Group 29">
      <path id="Path_355" data-name="Path 355" class="cls-6" d="M165.84,103.985l-12.348,7.129-12.347-7.129,12.347-7.129Z"/>
      <path id="Path_356" data-name="Path 356" class="cls-15" d="M153.492,111.114v36.72l12.348-7.129v-36.72Z"/>
      <path id="Path_357" data-name="Path 357" class="cls-15" d="M141.145,103.985l12.347,7.129v36.72l-12.347-7.129Z"/>
      <path id="Path_358" data-name="Path 358" class="cls-6" d="M149.394,122.908l-12.348,7.129L124.7,122.908l12.347-7.128Z"/>
      <path id="Path_359" data-name="Path 359" class="cls-15" d="M149.394,149.905v-27l-12.348,7.129v27Z"/>
      <path id="Path_360" data-name="Path 360" class="cls-15" d="M124.7,122.908v27l12.347,7.128v-27Z"/>
      <path id="Path_361" data-name="Path 361" class="cls-15" d="M132.949,141.832V159.1L120.6,166.233V148.96Z"/>
      <path id="Path_362" data-name="Path 362" class="cls-15" d="M108.255,141.832,120.6,148.96v17.273L108.255,159.1Z"/>
      <path id="Path_363" data-name="Path 363" class="cls-6" d="M132.949,141.832,120.6,148.96l-12.348-7.128L120.6,134.7Z"/>
    </g>
    <g id="Group_32" data-name="Group 32">
      <path id="Path_364" data-name="Path 364" class="cls-16" d="M78.181,88.689a11.858,11.858,0,0,0-3.012.715c-.709.438-2.475,2.471-2.257,2.826s.95.4,1.565.018,1.334-1.268,1.57-1.365c.642-.264,2,.233,2.971-.625S78.181,88.689,78.181,88.689Z"/>
      <g id="Group_30" data-name="Group 30">
        <path id="Path_365" data-name="Path 365" class="cls-17" d="M78.8,135.3c.037-.025.065-.052.106-.075a3.528,3.528,0,0,1,3.328.163l3.5,2.021h.719v.968h0a1.2,1.2,0,0,1-.718,1.053,3.87,3.87,0,0,1-3.5,0l-3.328-2.184a1.265,1.265,0,0,1-.713-.935h-.012l.132-.962Z"/>
        <path id="Path_366" data-name="Path 366" class="cls-18" d="M78.906,136.313l3.328,2.183a3.864,3.864,0,0,0,3.5,0h0a1.48,1.48,0,0,0,0-2.546,27.243,27.243,0,0,0-3.7-1.772,3.68,3.68,0,0,0-3.173.191A1.111,1.111,0,0,0,78.906,136.313Z"/>
      </g>
      <g id="Group_31" data-name="Group 31">
        <path id="Path_367" data-name="Path 367" class="cls-17" d="M89.331,132.512c.037-.026.065-.052.1-.076a3.533,3.533,0,0,1,3.33.164l3.5,2.021h.719v.967h0a1.2,1.2,0,0,1-.718,1.054,3.868,3.868,0,0,1-3.5,0l-3.33-2.185a1.262,1.262,0,0,1-.712-.935h-.012l.132-.962Z"/>
        <path id="Path_368" data-name="Path 368" class="cls-18" d="M89.436,133.522l3.33,2.184a3.868,3.868,0,0,0,3.5,0h0a1.481,1.481,0,0,0,0-2.546,27.15,27.15,0,0,0-3.7-1.772,3.682,3.682,0,0,0-3.172.191A1.11,1.11,0,0,0,89.436,133.522Z"/>
      </g>
      <path id="Path_369" data-name="Path 369" class="cls-19" d="M96.99,134.3c0,.656-1.138,1.024-1.78,1.17-1.141.229-3.223-.228-3.51-1.36-.306-1.023-.621-2.46-.76-2.96-.671-2.97-1.68-10.27-2.34-16.69-.04-.31-.07-.62-.1-.93-.08.21-.15.42-.22.65-2,6.35-1.96,19.94-2.08,21.65,0,.1-.01.18-.01.24a.952.952,0,0,1-.03.25c-.294,1.114-2.481,1.1-2.93,1.01a2.982,2.982,0,0,1-1.29-.35,1.459,1.459,0,0,1-.671-.73A209.666,209.666,0,0,1,80.04,110.4a90.455,90.455,0,0,1,.57-9.15c.03-.22.05-.33.05-.33a31.173,31.173,0,0,1,5.95.98c.12-.9.52.16.52.16l8.85-.96.2-.02v.03q.015.1.03.48c.02.35.04.85.059,1.53.021,1.15.041,2.8-.009,4.86C96.17,111.3,94.45,119.45,96.99,134.3Z"/>
      <path id="Path_370" data-name="Path 370" class="cls-20" d="M59.8,73.771a.693.693,0,0,0-.081.129C59.751,73.861,59.769,73.807,59.8,73.771Z"/>
      <path id="Path_371" data-name="Path 371" class="cls-21" d="M83.35,109.02a8.458,8.458,0,0,1-1.46-.67c-1.76-1.02-2.95-2.37-2.84-3.7,0,0,.16-3.51.34-7.69h.03C84.41,96.61,83.89,104.97,83.35,109.02Z"/>
      <path id="Path_372" data-name="Path 372" class="cls-21" d="M93.44,75.71c-.671,2.09-2.4,2.87-3.99,3.35a12.532,12.532,0,0,1-5.25.31,1.367,1.367,0,0,1-.181-.04l.631.8.36,1.2v4.33L80,91.88s-.17.13-.44.36c.06-1.81.12-3.56.15-5.02a30.42,30.42,0,0,1,1.27-8.79,2.33,2.33,0,0,1,.43-.62c.21-.21.4-.4.58-.57,2.35-2.26,2.71-1.93,2.71-1.93l5.23-1.88.26-.09a2.576,2.576,0,0,1,.329.03h.011c.12.02.28.05.46.09s.4.1.64.17v-.37a4.02,4.02,0,0,1,.5-.06c-.07.01-.15.04-.23.06C93,73.77,93.769,74.66,93.44,75.71Z"/>
      <path id="Path_373" data-name="Path 373" class="cls-21" d="M98.14,80.36a14.463,14.463,0,0,0-.41-2.54A10.622,10.622,0,0,1,98.14,80.36Z"/>
      <path id="Path_374" data-name="Path 374" class="cls-5" d="M88.925,79.15a9.831,9.831,0,0,1-7.281-1.574c.121-.12.236-.236.346-.336a9.291,9.291,0,0,0,6.855,1.53c4.15-.66,4.54-2.41,4.44-3.61-.1-1.04-1.385-1.76-1.655-1.9l.463-.066a3.318,3.318,0,0,1,1.582,2.1C93.775,76.57,93.365,78.44,88.925,79.15Z"/>
      <path id="Path_375" data-name="Path 375" class="cls-18" d="M83.924,59.947c3.18.578,4.813-.289,6.038,1.344,1.088,1.429-.7,5.408.663,7.381.97,1.429,4.319-.085,5.153-2.892.714-3.52.073-7.021-1.083-8.5-2.6-3.324-7.063-3.849-10.466-2.93a8.439,8.439,0,0,0-3.639,1.887C80.147,57.634,80.727,59.369,83.924,59.947Z"/>
      <path id="Path_376" data-name="Path 376" class="cls-18" d="M83.773,60.279c3.157.611,4.778-.3,5.993,1.418,1.08,1.509-.692,5.709.658,7.791.963,1.508,4.288-.09,5.115-3.052.709-3.715.071-7.411-1.075-8.968-2.583-3.509-7.011-4.064-10.387-3.094a8.231,8.231,0,0,0-3.612,1.992C80.026,57.838,80.6,59.669,83.773,60.279Z"/>
      <path id="Path_377" data-name="Path 377" class="cls-22" d="M81.78,70.016a2.788,2.788,0,0,0,.341.6c1.514,1.955,4.422,2.058,6.225,1.565.748-.2.867-2.262.765-4.61-.153-3.333-.765-7.261-.765-7.261l-7.433.51S80.642,67.431,81.78,70.016Z"/>
      <path id="Path_378" data-name="Path 378" class="cls-6" d="M91.512,73.5a1.593,1.593,0,0,1,.292,2.125c-.792,1.25-2.709,1.833-4.5,1.541a34.642,34.642,0,0,1-3.983-1.12c-.2,0,1.371-1.235,1.371-1.235Z"/>
      <path id="Path_379" data-name="Path 379" class="cls-23" d="M87.429,68.5l.021-.011,1.664-.924a16.37,16.37,0,0,1-.1,3.264h.01l2.6-.838v4.43A1.879,1.879,0,0,1,90.6,76a5.9,5.9,0,0,1-4.9,0c-1.169-.587-1.009-1.381-1.009-1.381,0-.023,0-2.4,0-2.4h0a5.533,5.533,0,0,1-1.065-.389,4.243,4.243,0,0,1-1.511-1.21,2.876,2.876,0,0,1-.333-.6C85.014,71.84,87.429,68.5,87.429,68.5Z"/>
      <path id="Path_380" data-name="Path 380" class="cls-24" d="M79.416,58.535c.052,1.327,2.024,2.654,3.045,3.674,1.463,1.463-.189,3.856.833,4.021s.864-3.121,2.722-1.872c1.016.684,1.667,5.165,1.667,6.287,0,1.139,3.493,2.477,5.05.919a11.21,11.21,0,0,0,3.045-5.784c-.834,2.807-4.183,4.321-5.153,2.892-1.36-1.973.425-5.952-.663-7.381-1.225-1.633-2.858-.766-6.038-1.344-3.2-.578-3.777-2.313-3.334-3.708h-.017A3.3,3.3,0,0,0,79.416,58.535Z"/>
      <path id="Path_381" data-name="Path 381" class="cls-21" d="M84.269,87.92C83.18,89.71,79.23,96.6,76.8,96.58c-2.45-.03-2.8-2.44-2.34-4.23.04-.14.08-.28.13-.41.63-1.8,4.1-12.94,6.55-13.57a3.04,3.04,0,0,1,3.1,1.2,6.222,6.222,0,0,1,.97,1.62C85.97,82.98,85.37,86.12,84.269,87.92Z"/>
      <path id="Path_382" data-name="Path 382" class="cls-25" d="M84.31,118.56v18.78c-.987.125-2.654,0-3.041-1.09-.01-.1-.164-1.783-.229-2.29a202.236,202.236,0,0,1-1-23.56C80.74,110.53,84.31,111.57,84.31,118.56Z"/>
      <path id="Path_383" data-name="Path 383" class="cls-25" d="M92.98,135.247a1.808,1.808,0,0,1-1.28-1.137s-.21-.7-.52-1.99c-.02-.09-.04-.17-.06-.26-.06-.23-.11-.46-.18-.71-.671-2.97-1.68-10.27-2.34-16.69,1.09,1.03,2.19,2.91,2.61,6.32C91.78,125.46,92.5,131.347,92.98,135.247Z"/>
      <path id="Path_384" data-name="Path 384" class="cls-5" d="M84.269,87.92C83.18,89.71,79.23,96.6,76.8,96.58c-2.45-.03-2.8-2.44-2.34-4.23h0c2.131,2.32,5.1-1.1,8.04-5.29s1.72-7.49,1.72-7.49h.02a6.222,6.222,0,0,1,.97,1.62C85.97,82.98,85.37,86.12,84.269,87.92Z"/>
      <path id="Path_385" data-name="Path 385" class="cls-5" d="M97.95,90.87c-.04.59-1.09,1.8-1.31,1.75.01.16.3,10.69.35,11.23.14,1.42-1.28,3.42-3.15,4.5a10.666,10.666,0,0,1-2.66,1.03l-.45-4.62-.461,4.81a13.857,13.857,0,0,1-6.919-.55c.54-4.05,1.06-12.41-3.93-12.06h-.03c.05-1.53.12-3.15.17-4.72.27-.23.44-.36.44-.36l5.01-6.22V81.33l-.36-1.2-.631-.8a1.367,1.367,0,0,0,.181.04,12.532,12.532,0,0,0,5.25-.31c1.59-.48,3.319-1.26,3.99-3.35.329-1.05-.44-1.94-1.54-2.45.08-.02.16-.05.23-.06a4.094,4.094,0,0,1,2.4.53c.17.1.35.21.51.32,2.449,1.664,3.14,4.235,3.14,7.42C98.18,81.47,98.29,85.99,97.95,90.87Z"/>
      <path id="Path_386" data-name="Path 386" class="cls-5" d="M97.63,77.47a6.426,6.426,0,0,0-2.59-3.42c-.16-.11-.34-.22-.51-.32a4.094,4.094,0,0,0-2.4-.53C95.04,72.44,96.81,74.66,97.63,77.47Z"/>
    </g>
    <g id="Group_36" data-name="Group 36">
      <g id="Group_33" data-name="Group 33" class="cls-7">
        <path id="Path_387" data-name="Path 387" class="cls-5" d="M153.39,45.74l-3.1,1.07a9.093,9.093,0,0,0-2.87-2.76,5.657,5.657,0,0,0-1.39-.58h-.011a2.972,2.972,0,0,0-1.489.02l-3.09-4.64-.01-.01c1.54-.63,3.65-.35,5.99,1A18.082,18.082,0,0,1,153.39,45.74Z"/>
        <path id="Path_388" data-name="Path 388" class="cls-26" d="M155.92,53.26c0,2.16-.8,3.67-2.13,4.41h-.01l-.39.18v-.01c-1.47.61-3.46.38-5.68-.82l.01-.81.03-3.38c1.81.9,3.3.5,3.79-.9a3.344,3.344,0,0,0,.17-1.1,6.781,6.781,0,0,0-.9-3.15l3.11-1.07A13.946,13.946,0,0,1,155.92,53.26Z"/>
        <path id="Path_389" data-name="Path 389" class="cls-8" d="M146.98,52.37l-.04,4.2c-4.48-2.83-8.03-8.59-8.03-13.14,0-2.08.75-3.57,2-4.32l3.1,4.65a2.467,2.467,0,0,0-.89,2.1C143.12,48.09,144.81,50.9,146.98,52.37Z"/>
      </g>
      <path id="Path_390" data-name="Path 390" class="cls-6" d="M156.12,44.47l-2.73,1.27a18.082,18.082,0,0,0-5.97-5.9c-2.34-1.35-4.45-1.63-5.99-1l2.74-1.27c1.54-.63,3.65-.35,5.98,1A17.989,17.989,0,0,1,156.12,44.47Z"/>
      <path id="Path_391" data-name="Path 391" class="cls-6" d="M158.66,51.99a6.111,6.111,0,0,1-.61,2.81,3.878,3.878,0,0,1-1.67,1.66l-.06.03c-.04.02-.07.03-.11.05l-2.42,1.13c1.33-.74,2.13-2.25,2.13-4.41a13.946,13.946,0,0,0-2-6.65l-3.11,1.07,2.73-1.28,3.11-1.06A13.965,13.965,0,0,1,158.66,51.99Z"/>
      <path id="Path_392" data-name="Path 392" class="cls-6" d="M151.54,51.93c-.49,1.4-1.98,1.8-3.79.9l-.03,3.38-.78.36.04-4.2c-2.17-1.47-3.86-4.28-3.86-6.51a2.467,2.467,0,0,1,.89-2.1l-3.1-4.65.53-.26,3.09,4.64a2.972,2.972,0,0,1,1.489-.02,3.5,3.5,0,0,0-.169,1.12c0,2.23,1.7,5.04,3.86,6.51v.82l.78-.37A4.2,4.2,0,0,0,151.54,51.93Z"/>
      <g id="Group_34" data-name="Group 34">
        <path id="Path_393" data-name="Path 393" class="cls-6" d="M179,62.2v2.02l-1.82.95V63.16l-16.9-9.76,1.819-.95Z"/>
        <path id="Path_394" data-name="Path 394" class="cls-6" d="M171.9,54.03v2.02l-1.82.95V54.99l-9.8-5.66,1.819-.96Z"/>
        <path id="Path_395" data-name="Path 395" class="cls-6" d="M179,66.28v2.01l-1.82.96V67.23l-16.9-9.75,1.819-.961,14.99,8.65Z"/>
      </g>
      <g id="Group_35" data-name="Group 35">
        <path id="Path_396" data-name="Path 396" class="cls-27" d="M170.08,54.99V57l-9.8-5.65V49.33Z"/>
        <path id="Path_397" data-name="Path 397" class="cls-27" d="M160.28,55.42V53.4l16.9,9.76v2.01Z"/>
        <path id="Path_398" data-name="Path 398" class="cls-27" d="M177.18,67.23v2.02l-16.9-9.76V57.48Z"/>
      </g>
    </g>
    <g id="Group_37" data-name="Group 37">
      <path id="Path_399" data-name="Path 399" class="cls-28" d="M69.711,150.287c0-4.051-3.282-9.229-7.333-11.567a7.356,7.356,0,0,0-3.638-1.1,21.54,21.54,0,0,0-8.844-10.8c-3.894-2.249-7.229-1.876-8.794.52a14.49,14.49,0,0,0-3.464-2.909c-2.547-1.47-4.787-1.463-6.1-.251l0,0-4.763,3.785,6.21,4.858a16.223,16.223,0,0,0,4.852,5.154v.056l6.9,3.981,19.292,15.1,4.316-3.368A4.377,4.377,0,0,0,69.711,150.287Z"/>
      <path id="Path_400" data-name="Path 400" class="cls-6" d="M57.653,142.464a7.34,7.34,0,0,0-3.637-1.1,21.552,21.552,0,0,0-8.844-10.8c-3.9-2.249-7.23-1.876-8.794.52a14.451,14.451,0,0,0-3.465-2.908c-4.051-2.339-7.334-.952-7.334,3.1,0,3.861,2.992,8.717,6.779,11.192v.055l25.295,14.6c4.051,2.338,7.334.95,7.334-3.1S61.7,144.8,57.653,142.464Z"/>
    </g>
  </g>
</svg>
