<svg id="instagram" xmlns="http://www.w3.org/2000/svg" xmlns:xlink="http://www.w3.org/1999/xlink" viewBox="0 0 20 20">
  <defs>
    <style>
      .cls-1 {
        fill: none;
      }

      .cls-2 {
        clip-path: url(#clip-path);
      }

      .cls-3 {
        fill: #fafafa;
      }
    </style>
    <clipPath id="clip-path">
      <path id="Path_1" data-name="Path 1" class="cls-1" d="M16.538,4.662a1.2,1.2,0,1,1-1.2-1.2A1.2,1.2,0,0,1,16.538,4.662ZM10,13.333A3.333,3.333,0,1,1,13.333,10,3.333,3.333,0,0,1,10,13.333Zm0-8.468A5.135,5.135,0,1,0,15.135,10,5.135,5.135,0,0,0,10,4.865ZM10,1.8c2.67,0,2.986.01,4.041.058A5.552,5.552,0,0,1,15.9,2.2a3.125,3.125,0,0,1,1.15.748A3.125,3.125,0,0,1,17.8,4.1a5.552,5.552,0,0,1,.344,1.857C18.188,7.014,18.2,7.33,18.2,10s-.01,2.986-.058,4.041A5.552,5.552,0,0,1,17.8,15.9a3.31,3.31,0,0,1-1.9,1.9,5.552,5.552,0,0,1-1.857.344c-1.054.048-1.371.058-4.041.058s-2.987-.01-4.041-.058A5.552,5.552,0,0,1,4.1,17.8a3.125,3.125,0,0,1-1.15-.748A3.125,3.125,0,0,1,2.2,15.9a5.552,5.552,0,0,1-.344-1.857C1.812,12.986,1.8,12.67,1.8,10s.01-2.986.058-4.041A5.552,5.552,0,0,1,2.2,4.1a3.125,3.125,0,0,1,.748-1.15A3.125,3.125,0,0,1,4.1,2.2,5.552,5.552,0,0,1,5.959,1.86C7.014,1.812,7.33,1.8,10,1.8ZM10,0C7.284,0,6.944.012,5.877.06A7.355,7.355,0,0,0,3.45.525,4.905,4.905,0,0,0,1.678,1.678,4.905,4.905,0,0,0,.525,3.45,7.355,7.355,0,0,0,.06,5.877C.012,6.944,0,7.284,0,10s.012,3.056.06,4.123A7.355,7.355,0,0,0,.525,16.55a4.905,4.905,0,0,0,1.153,1.772A4.905,4.905,0,0,0,3.45,19.475a7.355,7.355,0,0,0,2.427.465C6.944,19.988,7.284,20,10,20s3.056-.012,4.123-.06a7.355,7.355,0,0,0,2.427-.465,5.106,5.106,0,0,0,2.925-2.925,7.355,7.355,0,0,0,.465-2.427c.048-1.067.06-1.407.06-4.123s-.012-3.056-.06-4.123a7.355,7.355,0,0,0-.465-2.427,4.905,4.905,0,0,0-1.153-1.772A4.905,4.905,0,0,0,16.55.525,7.355,7.355,0,0,0,14.123.06C13.056.012,12.716,0,10,0Z"/>
    </clipPath>
  </defs>
  <g id="Group_1" data-name="Group 1" class="cls-2">
    <rect id="Rectangle_1" data-name="Rectangle 1" class="cls-3" width="30" height="30" transform="translate(-5 -5)"/>
  </g>
</svg>
