<svg xmlns="http://www.w3.org/2000/svg" xmlns:xlink="http://www.w3.org/1999/xlink" viewBox="0 0 295.299 421.994">
  <defs>
    <style>
      .cls-1, .cls-2 {
        fill: #bfbfc2;
      }

      .cls-1 {
        clip-rule: evenodd;
      }

      .cls-3 {
        clip-path: url(#clip-path);
      }

      .cls-4 {
        clip-path: url(#clip-path-2);
      }

      .cls-5 {
        clip-path: url(#clip-path-3);
      }

      .cls-6 {
        clip-path: url(#clip-path-4);
      }

      .cls-7 {
        clip-path: url(#clip-path-5);
      }

      .cls-8 {
        clip-path: url(#clip-path-6);
      }

      .cls-9 {
        clip-path: url(#clip-path-7);
      }

      .cls-10 {
        clip-path: url(#clip-path-8);
      }

      .cls-11 {
        clip-path: url(#clip-path-9);
      }

      .cls-12 {
        clip-path: url(#clip-path-10);
      }

      .cls-13 {
        clip-path: url(#clip-path-11);
      }

      .cls-14 {
        clip-path: url(#clip-path-12);
      }

      .cls-15 {
        clip-path: url(#clip-path-13);
      }

      .cls-16 {
        clip-path: url(#clip-path-14);
      }

      .cls-17 {
        clip-path: url(#clip-path-15);
      }

      .cls-18 {
        clip-path: url(#clip-path-16);
      }

      .cls-19 {
        clip-path: url(#clip-path-17);
      }

      .cls-20 {
        clip-path: url(#clip-path-18);
      }

      .cls-21 {
        clip-path: url(#clip-path-19);
      }

      .cls-22 {
        clip-path: url(#clip-path-20);
      }

      .cls-23 {
        clip-path: url(#clip-path-21);
      }

      .cls-24 {
        clip-path: url(#clip-path-22);
      }

      .cls-25 {
        clip-path: url(#clip-path-23);
      }

      .cls-26 {
        clip-path: url(#clip-path-24);
      }
    </style>
    <clipPath id="clip-path">
      <path id="Path_1" data-name="Path 1" class="cls-1" d="M135,368l12-13,13,13-7,7,11,45H130l12-45Z"/>
    </clipPath>
    <clipPath id="clip-path-2">
      <path id="Path_2" data-name="Path 2" class="cls-1" d="M290.262,422.587H.228l1.377-23.53c2.689-45.942,38.887-81,80.31-81h37.5v4.694H84.43c-39.924,0-74.811,33.748-77.4,77.97L6.071,417.04H289.51l-.53-16.323c-2.592-44.222-37.479-77.97-77.4-77.97H176.16v-4.694h37.679c41.423,0,77.621,35.062,80.31,81l1.378,23.53Z"/>
    </clipPath>
    <clipPath id="clip-path-3">
      <path id="Path_3" data-name="Path 3" class="cls-1" d="M122.4,301.146v26.315a24.747,24.747,0,0,0,49.493,0V301.689q2.154-.655,4.267-1.425V327.64a29.227,29.227,0,1,1-58.453,0V299.454Q120.026,300.37,122.4,301.146Z"/>
    </clipPath>
    <clipPath id="clip-path-4">
      <path id="Path_4" data-name="Path 4" class="cls-1" d="M223.72,374.489,211.635,399.7a2.56,2.56,0,1,1-4.617-2.213l11.672-24.345-9.12-15.8a2.56,2.56,0,1,1,4.434-2.56l9.813,17A2.557,2.557,0,0,1,223.72,374.489Z"/>
    </clipPath>
    <clipPath id="clip-path-5">
      <path id="Path_5" data-name="Path 5" class="cls-1" d="M70.362,374.514,82.513,399.8a2.572,2.572,0,0,0,4.641-2.22L75.42,373.158l9.169-15.845a2.572,2.572,0,0,0-4.458-2.568L70.265,371.8A2.56,2.56,0,0,0,70.362,374.514Z"/>
    </clipPath>
    <clipPath id="clip-path-6">
      <rect id="Rectangle_7" data-name="Rectangle 7" class="cls-2" width="4.693" height="103.68" transform="translate(117.707 317.2)"/>
    </clipPath>
    <clipPath id="clip-path-7">
      <rect id="Rectangle_9" data-name="Rectangle 9" class="cls-2" width="4.693" height="103.68" transform="translate(171.893 318.053)"/>
    </clipPath>
    <clipPath id="clip-path-8">
      <path id="Path_6" data-name="Path 6" class="cls-1" d="M128.585,420.157l12.626-46.909.816.7,2.56,1.706.844.085-11.977,44.495Zm34.114.533L150.6,375.554l2.515-.754,1.667-1.772,12.792,47.738Z"/>
    </clipPath>
    <clipPath id="clip-path-9">
      <path id="Path_7" data-name="Path 7" class="cls-1" d="M138.406,368.1a10.441,10.441,0,0,0,18.64.229l-9.435-9.434Zm37.74,12.692-3.319,3.318-12.913-12.913a14.06,14.06,0,0,1-24.119-.486l-13.48,13.479-3.327-3.327,26.539-26.539L147.6,352.4l2.076,1.924Z"/>
    </clipPath>
    <clipPath id="clip-path-10">
      <path id="Path_8" data-name="Path 8" class="cls-1" d="M148.007,40.72c-54.029,0-95.131,47.384-92.931,101.6L58.06,215.9c9.679,49.942,44.8,86.272,90.324,91.057,46.675-5.036,81.115-41.1,89.57-91.057l2.984-73.58C243.137,88.1,202.036,40.72,148.007,40.72Zm98.9,100.189L243.73,217.79c-9,52.2-45.653,89.881-95.328,95.143-48.457-5-85.831-42.96-96.132-95.143l-3.176-76.881C46.753,84.257,90.5,34.747,148,34.747S249.247,84.257,246.907,140.909Z"/>
    </clipPath>
    <clipPath id="clip-path-11">
      <path id="Path_9" data-name="Path 9" class="cls-1" d="M194.08,244.326c-7.755,6.734-25.272,13.141-45.653,13.141s-37.9-6.407-45.654-13.141c0,0-.793-2.183.371-3.347a3.945,3.945,0,0,1,3.043-.928c7.747,6.738,21.851,12.3,42.24,12.3s34.493-5.558,42.24-12.3c0,0,1.895-.7,2.815.217A3.6,3.6,0,0,1,194.08,244.326Z"/>
    </clipPath>
    <clipPath id="clip-path-12">
      <rect id="Rectangle_15" data-name="Rectangle 15" class="cls-2" width="27.307" height="4.267" transform="translate(134.347 267.707)"/>
    </clipPath>
    <clipPath id="clip-path-13">
      <path id="Path_10" data-name="Path 10" class="cls-1" d="M51.128,151.207S30.951,144.956,31.662,165.7c0,0,3,30.077,4.308,32.849,0,0,7.924,17.512,21,18.288h0l.159,5.645s-22.985-2.947-27.424-29.435l-3.5-24.062s-2.721-31.845,23.669-23.748h0l1.257,5.972"/>
    </clipPath>
    <clipPath id="clip-path-14">
      <path id="Path_11" data-name="Path 11" class="cls-1" d="M44.468,192.995a4.352,4.352,0,0,1-2.1.853,4.276,4.276,0,0,1-2.085-.853L38.2,172.012s2.872-10.333,15.063-4.873l.289,6s-10.7-3.793-10.475.93C43.292,178.616,44.468,192.995,44.468,192.995Z"/>
    </clipPath>
    <clipPath id="clip-path-15">
      <path id="Path_12" data-name="Path 12" class="cls-1" d="M244.483,151.256s20.264-6.248,19.551,14.481c0,0-3.017,30.057-4.327,32.827,0,0-7.959,17.5-21.093,18.275h0l-.159,5.641S261.54,219.535,266,193.065l3.519-24.046s2.732-31.823-23.773-23.732h0l-1.262,5.969"/>
    </clipPath>
    <clipPath id="clip-path-16">
      <path id="Path_13" data-name="Path 13" class="cls-1" d="M251.171,193.015a4.382,4.382,0,0,0,2.109.853,4.3,4.3,0,0,0,2.094-.853l2.092-20.969s-2.886-10.326-15.13-4.869l-.29,6s10.743-3.791,10.521.929C252.353,178.646,251.171,193.015,251.171,193.015Z"/>
    </clipPath>
    <clipPath id="clip-path-17">
      <path id="Path_14" data-name="Path 14" class="cls-1" d="M155.893,191.333h1.494c3.087,4.193,4.343,10.637,5.973,16.214a12.337,12.337,0,0,1-.427,5.973c-1.617,4.475-6.7,4.395-10.88,6.4-1.123.538-1.958,1.468-3.413,1.707-.948-.836-2.093-1-2.56-2.347-1.152-1.587.333-2.578,1.493-3.2,2.107-1.13,8.609-2.243,9.387-4.267.963-1.1.323-4.39,0-5.546a64.888,64.888,0,0,0-2.347-8.107c-.746-1.775-2.056-3.646-1.28-5.76A11.145,11.145,0,0,0,155.893,191.333Z"/>
    </clipPath>
    <clipPath id="clip-path-18">
      <path id="Path_15" data-name="Path 15" class="cls-1" d="M96.8,158.48h5.973a5.974,5.974,0,1,1,0,11.947H96.8a5.974,5.974,0,0,1,0-11.947Z"/>
    </clipPath>
    <clipPath id="clip-path-19">
      <path id="Path_16" data-name="Path 16" class="cls-1" d="M194.08,158.48h5.973a5.974,5.974,0,1,1,0,11.947H194.08a5.974,5.974,0,0,1,0-11.947Z"/>
    </clipPath>
    <clipPath id="clip-path-20">
      <ellipse id="Ellipse_1" data-name="Ellipse 1" class="cls-2" cx="14.933" cy="9.813" rx="14.933" ry="9.813" transform="translate(85.707 186.64)"/>
    </clipPath>
    <clipPath id="clip-path-21">
      <ellipse id="Ellipse_2" data-name="Ellipse 2" class="cls-2" cx="14.933" cy="9.813" rx="14.933" ry="9.813" transform="translate(184.693 186.64)"/>
    </clipPath>
    <clipPath id="clip-path-22">
      <path id="Path_17" data-name="Path 17" class="cls-2" d="M175,142s25.987-14.926,43.12,3.927l8.827-.252s-11.009-24.032-56.2-8.869L175,143m.327.441s25.545-14.6,43.793,1.486l4.827.748s-6.183-22.5-51.2-7.869L174,142"/>
    </clipPath>
    <clipPath id="clip-path-23">
      <path id="Path_18" data-name="Path 18" class="cls-2" d="M120.764,142.1s-25.9-14.794-42.976,3.893l-8.8-.25S79.963,121.921,125,136.95l-4.239,6.139m-.326.437S94.979,129.05,76.792,145l-4.811.741s6.162-22.3,51.029-7.8l-1.249,4.156"/>
    </clipPath>
    <clipPath id="clip-path-24">
      <path id="Path_19" data-name="Path 19" class="cls-1" d="M57.637,134.564S85.73,120.321,82.625,71.342c0,0,44.941,49.241,153.268,34.231l5.12,46.08s63.682-118-50.346-145.066C79.075-19.9,77.789,49.983,77.789,49.983S43.567,44.869,40.71,78.177s7.45,68.356,7.45,68.356l8.533,6.827Z"/>
    </clipPath>
  </defs>
  <g id="team-new" transform="translate(-0.228 -0.593)">
    <g id="Group_2" data-name="Group 2">
      <g id="Group_1" data-name="Group 1" class="cls-3">
        <rect id="Rectangle_1" data-name="Rectangle 1" class="cls-2" width="44" height="75" transform="translate(125 350)"/>
      </g>
    </g>
    <g id="Group_4" data-name="Group 4">
      <g id="Group_3" data-name="Group 3" class="cls-4">
        <rect id="Rectangle_2" data-name="Rectangle 2" class="cls-2" width="305.299" height="114.533" transform="translate(-4.772 313.053)"/>
      </g>
    </g>
    <g id="Group_6" data-name="Group 6">
      <g id="Group_5" data-name="Group 5" class="cls-5">
        <rect id="Rectangle_3" data-name="Rectangle 3" class="cls-2" width="68.453" height="67.426" transform="translate(112.707 294.454)"/>
      </g>
    </g>
    <g id="Group_8" data-name="Group 8">
      <g id="Group_7" data-name="Group 7" class="cls-6">
        <rect id="Rectangle_4" data-name="Rectangle 4" class="cls-2" width="27.394" height="57.649" transform="translate(201.766 348.501)"/>
      </g>
    </g>
    <g id="Group_10" data-name="Group 10">
      <g id="Group_9" data-name="Group 9" class="cls-7">
        <rect id="Rectangle_5" data-name="Rectangle 5" class="cls-2" width="27.487" height="57.796" transform="translate(64.921 348.461)"/>
      </g>
    </g>
    <g id="Group_12" data-name="Group 12">
      <g id="Group_11" data-name="Group 11" class="cls-8">
        <rect id="Rectangle_6" data-name="Rectangle 6" class="cls-2" width="14.693" height="113.68" transform="translate(112.707 312.2)"/>
      </g>
    </g>
    <g id="Group_14" data-name="Group 14">
      <g id="Group_13" data-name="Group 13" class="cls-9">
        <rect id="Rectangle_8" data-name="Rectangle 8" class="cls-2" width="14.693" height="113.68" transform="translate(166.893 313.053)"/>
      </g>
    </g>
    <g id="Group_16" data-name="Group 16">
      <g id="Group_15" data-name="Group 15" class="cls-10">
        <rect id="Rectangle_10" data-name="Rectangle 10" class="cls-2" width="48.994" height="57.737" transform="translate(123.585 368.028)"/>
      </g>
    </g>
    <g id="Group_18" data-name="Group 18">
      <g id="Group_17" data-name="Group 17" class="cls-11">
        <rect id="Rectangle_11" data-name="Rectangle 11" class="cls-2" width="67.158" height="41.791" transform="translate(113.988 347.396)"/>
      </g>
    </g>
    <g id="Group_20" data-name="Group 20">
      <g id="Group_19" data-name="Group 19" class="cls-12">
        <rect id="Rectangle_12" data-name="Rectangle 12" class="cls-2" width="207.992" height="288.187" transform="translate(44.004 29.747)"/>
      </g>
    </g>
    <g id="Group_22" data-name="Group 22">
      <g id="Group_21" data-name="Group 21" class="cls-13">
        <rect id="Rectangle_13" data-name="Rectangle 13" class="cls-2" width="101.953" height="27.673" transform="translate(97.509 234.793)"/>
      </g>
    </g>
    <g id="Group_24" data-name="Group 24">
      <g id="Group_23" data-name="Group 23" class="cls-14">
        <rect id="Rectangle_14" data-name="Rectangle 14" class="cls-2" width="37.307" height="14.267" transform="translate(129.347 262.707)"/>
      </g>
    </g>
    <g id="Group_26" data-name="Group 26">
      <g id="Group_25" data-name="Group 25" class="cls-15">
        <rect id="Rectangle_16" data-name="Rectangle 16" class="cls-2" width="46.529" height="88.564" transform="translate(21.122 138.916)"/>
      </g>
    </g>
    <g id="Group_28" data-name="Group 28">
      <g id="Group_27" data-name="Group 27" class="cls-16">
        <rect id="Rectangle_17" data-name="Rectangle 17" class="cls-2" width="25.352" height="38.301" transform="translate(33.202 160.547)"/>
      </g>
    </g>
    <g id="Group_30" data-name="Group 30">
      <g id="Group_29" data-name="Group 29" class="cls-17">
        <rect id="Rectangle_18" data-name="Rectangle 18" class="cls-2" width="46.689" height="88.51" transform="translate(227.909 138.97)"/>
      </g>
    </g>
    <g id="Group_32" data-name="Group 32">
      <g id="Group_31" data-name="Group 31" class="cls-18">
        <rect id="Rectangle_19" data-name="Rectangle 19" class="cls-2" width="25.419" height="38.282" transform="translate(237.046 160.585)"/>
      </g>
    </g>
    <g id="Group_34" data-name="Group 34">
      <g id="Group_33" data-name="Group 33" class="cls-19">
        <rect id="Rectangle_20" data-name="Rectangle 20" class="cls-2" width="27.91" height="40.293" transform="translate(140.664 186.333)"/>
      </g>
    </g>
    <g id="Group_36" data-name="Group 36">
      <g id="Group_35" data-name="Group 35" class="cls-20">
        <rect id="Rectangle_21" data-name="Rectangle 21" class="cls-2" width="27.92" height="21.947" transform="translate(85.827 153.48)"/>
      </g>
    </g>
    <g id="Group_38" data-name="Group 38">
      <g id="Group_37" data-name="Group 37" class="cls-21">
        <rect id="Rectangle_22" data-name="Rectangle 22" class="cls-2" width="27.92" height="21.947" transform="translate(183.107 153.48)"/>
      </g>
    </g>
    <g id="Group_40" data-name="Group 40">
      <g id="Group_39" data-name="Group 39" class="cls-22">
        <rect id="Rectangle_23" data-name="Rectangle 23" class="cls-2" width="39.867" height="29.627" transform="translate(80.707 181.64)"/>
      </g>
    </g>
    <g id="Group_42" data-name="Group 42">
      <g id="Group_41" data-name="Group 41" class="cls-23">
        <rect id="Rectangle_24" data-name="Rectangle 24" class="cls-2" width="39.867" height="29.627" transform="translate(179.693 181.64)"/>
      </g>
    </g>
    <g id="Group_44" data-name="Group 44">
      <g id="Group_43" data-name="Group 43" class="cls-24">
        <rect id="Rectangle_25" data-name="Rectangle 25" class="cls-2" width="66.2" height="24.139" transform="translate(165.747 126.788)"/>
      </g>
    </g>
    <g id="Group_46" data-name="Group 46">
      <g id="Group_45" data-name="Group 45" class="cls-25">
        <rect id="Rectangle_26" data-name="Rectangle 26" class="cls-2" width="66.012" height="24.014" transform="translate(63.991 126.975)"/>
      </g>
    </g>
    <g id="Group_48" data-name="Group 48">
      <g id="Group_47" data-name="Group 47" class="cls-26">
        <rect id="Rectangle_27" data-name="Rectangle 27" class="cls-2" width="228.532" height="162.767" transform="translate(35.209 -4.407)"/>
      </g>
    </g>
  </g>
</svg>
