<svg xmlns="http://www.w3.org/2000/svg" xmlns:xlink="http://www.w3.org/1999/xlink" viewBox="0 0 20 18">
  <defs>
    <style>
      .cls-1 {
        fill: none;
      }

      .cls-2 {
        clip-path: url(#clip-path);
      }

      .cls-3 {
        fill: #fafafa;
      }
    </style>
    <clipPath id="clip-path">
      <path id="Path_1" data-name="Path 1" class="cls-1" d="M18.441,1.583a.447.447,0,0,1-.015.135v.009L15.58,16.321a.326.326,0,0,1-.09.111c-.06.048-.108.078-.358-.021l-4.547-3.493L7.838,15.426l.577-3.692L15.845,4.8c.306-.286.2-.346.2-.346.021-.35-.463-.1-.463-.1L6.218,10.162l0-.015L1.725,8.632v0l-.012,0,.024-.009L1.761,8.6,1.785,8.6,9.87,5.184c2.041-.861,4.1-1.728,5.677-2.4s2.75-1.153,2.816-1.18S18.4,1.583,18.441,1.583ZM18.52,0A2.3,2.3,0,0,0,17.8.173h0c-.219.088-1.262.527-2.846,1.193l-5.68,2.4L1.19,7.175l.048-.018a2.46,2.46,0,0,0-.565.289,1.558,1.558,0,0,0-.451.437,1.286,1.286,0,0,0-.213.855A1.553,1.553,0,0,0,.7,9.813a2.278,2.278,0,0,0,.511.274h.006l3.757,1.268c.168.542,1.145,3.758,1.379,4.5a2.767,2.767,0,0,0,.442.93,1.1,1.1,0,0,0,.292.272.859.859,0,0,0,.141.066.128.128,0,0,0,.048.015l-.039-.009a.279.279,0,0,1,.03.015.6.6,0,0,0,.09.018,1.269,1.269,0,0,0,1.073-.19l.027-.021,2.218-2.024,3.718,2.858.084.036a1.971,1.971,0,0,0,1.975-.183,2.018,2.018,0,0,0,.58-.768l.027-.069L19.929,2.052a2.124,2.124,0,0,0,.012-1.035,1.391,1.391,0,0,0-.6-.808A1.44,1.44,0,0,0,18.52,0Z"/>
    </clipPath>
  </defs>
  <g id="Group_2" data-name="Group 2" transform="translate(0 0)">
    <g id="Group_1" data-name="Group 1" class="cls-2">
      <rect id="Rectangle_1" data-name="Rectangle 1" class="cls-3" width="30" height="28" transform="translate(-5 -5)"/>
    </g>
  </g>
</svg>
