<svg xmlns="http://www.w3.org/2000/svg" viewBox="0 0 252.679 266.674">
  <defs>
    <style>
      .cls-1 {
        fill: #0cdad9;
      }

      .cls-2 {
        fill: #6afa7e;
      }

      .cls-3 {
        fill: #b0f6bd;
      }

      .cls-4 {
        fill: #4935fc;
      }

      .cls-5 {
        fill: #1781d1;
      }

      .cls-6 {
        fill: #e6e6e6;
      }

      .cls-7 {
        fill: #e6e6e7;
      }

      .cls-8 {
        fill: #fff;
      }

      .cls-9 {
        fill: #363540;
      }
    </style>
  </defs>
  <g id="token-sort-img" transform="translate(-79.28 -117.969)">
    <g id="Group_2" data-name="Group 2">
      <g id="Group_1" data-name="Group 1">
        <path id="Path_1" data-name="Path 1" class="cls-1" d="M205.428,260.685l-81.175-58.963c14.268-19.638,27.637-28.2,50.722-35.7Z"/>
      </g>
    </g>
    <path id="Path_2" data-name="Path 2" class="cls-2" d="M310.034,226.283a109.9,109.9,0,0,0-96.5-75.3c-.178-.014-.356-.025-.534-.038-.466-.031-.933-.063-1.4-.088-2.207-.132-4.428-.207-6.668-.207v.052a109.76,109.76,0,0,0-33.586,5.513l33.586,102.18v2.131l-64.583,88.892c15.218,11.056,31.067,17.56,48.724,19.935,16.98,2.778,33.564,1.323,50.894-4.373A109.877,109.877,0,0,0,310.034,226.283Z"/>
    <path id="Path_3" data-name="Path 3" class="cls-3" d="M143.816,344.636l61.112-84.114-98.9,32.134A104.194,104.194,0,0,0,143.816,344.636Z"/>
    <path id="Path_4" data-name="Path 4" class="cls-4" d="M115.684,231.524a94.187,94.187,0,0,0,0,58l89.244-29Z"/>
    <path id="Path_5" data-name="Path 5" class="cls-5" d="M124.017,234.232l80.911,26.29-68.814-50A84.8,84.8,0,0,0,124.017,234.232Z"/>
    <path id="Path_6" data-name="Path 6" class="cls-6" d="M121.952,375.579l-.809-.588,83.285-114.632-112.7-81.919h1l112.7,82.244-.1.131Z"/>
    <path id="Path_7" data-name="Path 7" class="cls-7" d="M99.985,294.818a110.958,110.958,0,0,1,.381-69.741l.948.321a109.956,109.956,0,0,0-.379,69.11Z"/>
    <path id="Path_8" data-name="Path 8" class="cls-7" d="M79.588,301.773l-.309-.951,124.03-40.3-124.03-40.3.309-.951,126.958,41.251Z"/>
    <rect id="Rectangle_1" data-name="Rectangle 1" class="cls-6" width="1" height="149.727" transform="translate(158.185 118.278) rotate(-18)"/>
    <path id="Path_9" data-name="Path 9" class="cls-6" d="M294.144,172.75A127.713,127.713,0,0,0,204.928,136.4v.17A127.137,127.137,0,0,0,166.3,142.66l.306.952a126.032,126.032,0,0,1,74.3-.654c.025-.065.063-.126.09-.191,51.394,15.576,89.961,63.2,89.961,117.755A123.26,123.26,0,0,1,207.838,383.643c-25.913,0-53.906-9-74.882-24.065l-.583.813c21.139,15.185,49.35,24.252,75.465,24.252A124.262,124.262,0,0,0,331.959,260.522C331.959,227.539,318.529,196.367,294.144,172.75Z"/>
    <path id="Path_10" data-name="Path 10" class="cls-8" d="M152.994,284.766a57.2,57.2,0,1,1,76.055,27.566A57.2,57.2,0,0,1,152.994,284.766Z"/>
    <g id="Group_3" data-name="Group 3">
      <path id="Path_11" data-name="Path 11" class="cls-6" d="M167.066,148.737a4.7,4.7,0,0,1-3.668-7.646h0a4.705,4.705,0,1,1,3.668,7.646Zm-2.887-7.02a3.7,3.7,0,1,0,5.207-.575,3.71,3.71,0,0,0-5.207.575Z"/>
      <path id="Path_12" data-name="Path 12" class="cls-6" d="M169.429,144.032a2.361,2.361,0,1,1-2.36-2.36A2.36,2.36,0,0,1,169.429,144.032Z"/>
    </g>
    <g id="Group_4" data-name="Group 4">
      <path id="Path_13" data-name="Path 13" class="cls-7" d="M100.25,231.677a4.7,4.7,0,0,1-3.669-7.646h0a4.706,4.706,0,1,1,3.669,7.646Zm-2.888-7.02a3.7,3.7,0,1,0,5.783,4.63,3.7,3.7,0,0,0-5.783-4.63Z"/>
      <path id="Path_14" data-name="Path 14" class="cls-7" d="M102.613,226.971a2.361,2.361,0,1,1-2.36-2.359A2.361,2.361,0,0,1,102.613,226.971Z"/>
    </g>
    <g id="Group_5" data-name="Group 5">
      <path id="Path_15" data-name="Path 15" class="cls-7" d="M100.249,299.425a4.7,4.7,0,0,1-3.669-7.645h0a4.706,4.706,0,1,1,3.669,7.645Zm-2.888-7.02a3.706,3.706,0,1,0,5.208-.574,3.711,3.711,0,0,0-5.208.574Z"/>
      <path id="Path_16" data-name="Path 16" class="cls-7" d="M102.612,294.72a2.361,2.361,0,1,1-2.36-2.36A2.361,2.361,0,0,1,102.612,294.72Z"/>
    </g>
    <g id="Group_6" data-name="Group 6">
      <path id="Path_17" data-name="Path 17" class="cls-7" d="M132.826,364.817a4.7,4.7,0,0,1-3.669-7.644h0a4.706,4.706,0,1,1,3.669,7.644Zm-2.887-7.019a3.705,3.705,0,1,0,5.207-.574,3.71,3.71,0,0,0-5.207.574Z"/>
      <path id="Path_18" data-name="Path 18" class="cls-7" d="M135.189,360.112a2.36,2.36,0,1,1-2.36-2.359A2.361,2.361,0,0,1,135.189,360.112Z"/>
    </g>
    <g id="Group_7" data-name="Group 7">
      <path id="Path_19" data-name="Path 19" class="cls-9" d="M277.986,268a1.85,1.85,0,0,1,.352,1.133,1.987,1.987,0,0,1-.374,1.205,2.358,2.358,0,0,1-1.067.786,4.388,4.388,0,0,1-1.628.275,4.315,4.315,0,0,1-1.612-.275,2.355,2.355,0,0,1-1.061-.786,1.981,1.981,0,0,1-.374-1.205,1.866,1.866,0,0,1,.346-1.133,2.182,2.182,0,0,1,1.007-.726,1.924,1.924,0,0,1-.8-.67,1.757,1.757,0,0,1-.275-.991,1.831,1.831,0,0,1,.346-1.111,2.2,2.2,0,0,1,.974-.726,3.874,3.874,0,0,1,1.452-.253,3.949,3.949,0,0,1,1.468.253,2.19,2.19,0,0,1,.979.726,1.831,1.831,0,0,1,.347,1.111,1.743,1.743,0,0,1-.281.985,1.947,1.947,0,0,1-.808.676A2.218,2.218,0,0,1,277.986,268Zm-1.276,2.129a1.2,1.2,0,0,0,.528-1.028,1.164,1.164,0,0,0-.528-1.007,2.487,2.487,0,0,0-1.441-.368,2.433,2.433,0,0,0-1.43.368,1.171,1.171,0,0,0-.517,1.007,1.208,1.208,0,0,0,.517,1.028,2.375,2.375,0,0,0,1.43.379A2.428,2.428,0,0,0,276.71,270.129Zm-2.673-5.379a1.138,1.138,0,0,0-.006,1.81,2.051,2.051,0,0,0,1.238.33,2.12,2.12,0,0,0,1.259-.33,1.117,1.117,0,0,0-.011-1.81,2.092,2.092,0,0,0-1.248-.335A2.018,2.018,0,0,0,274.037,264.75Z"/>
      <path id="Path_20" data-name="Path 20" class="cls-9" d="M285.07,268a1.85,1.85,0,0,1,.352,1.133,1.987,1.987,0,0,1-.374,1.205,2.358,2.358,0,0,1-1.067.786,4.387,4.387,0,0,1-1.628.275,4.315,4.315,0,0,1-1.612-.275,2.355,2.355,0,0,1-1.061-.786,1.98,1.98,0,0,1-.374-1.205,1.866,1.866,0,0,1,.346-1.133,2.181,2.181,0,0,1,1.007-.726,1.925,1.925,0,0,1-.8-.67,1.757,1.757,0,0,1-.275-.991,1.831,1.831,0,0,1,.346-1.111,2.2,2.2,0,0,1,.974-.726,3.874,3.874,0,0,1,1.452-.253,3.949,3.949,0,0,1,1.468.253,2.19,2.19,0,0,1,.979.726,1.831,1.831,0,0,1,.347,1.111,1.743,1.743,0,0,1-.281.985,1.947,1.947,0,0,1-.808.676A2.219,2.219,0,0,1,285.07,268Zm-1.276,2.129a1.2,1.2,0,0,0,.528-1.028,1.164,1.164,0,0,0-.528-1.007,2.487,2.487,0,0,0-1.441-.368,2.433,2.433,0,0,0-1.43.368,1.171,1.171,0,0,0-.517,1.007,1.208,1.208,0,0,0,.517,1.028,2.375,2.375,0,0,0,1.43.379A2.428,2.428,0,0,0,283.794,270.129Zm-2.673-5.379a1.138,1.138,0,0,0-.006,1.81,2.051,2.051,0,0,0,1.238.33,2.12,2.12,0,0,0,1.259-.33,1.117,1.117,0,0,0-.011-1.81,2.092,2.092,0,0,0-1.248-.335A2.018,2.018,0,0,0,281.121,264.75Z"/>
      <path id="Path_21" data-name="Path 21" class="cls-9" d="M286.742,271.163a.728.728,0,0,1-.221-.544.715.715,0,0,1,.221-.534.727.727,0,0,1,.528-.214.7.7,0,0,1,.517.209.729.729,0,0,1,.209.539.739.739,0,0,1-.215.544.7.7,0,0,1-.511.214A.727.727,0,0,1,286.742,271.163Z"/>
      <path id="Path_22" data-name="Path 22" class="cls-9" d="M294.563,270.354v.958H289.03v-.749l3.135-3.024a3.753,3.753,0,0,0,.77-.952,1.825,1.825,0,0,0,.2-.809,1.132,1.132,0,0,0-.423-.94,1.917,1.917,0,0,0-1.215-.336,2.416,2.416,0,0,0-1.97.836l-.748-.649a3.005,3.005,0,0,1,1.183-.857,4.16,4.16,0,0,1,1.634-.309,2.977,2.977,0,0,1,1.925.578,1.908,1.908,0,0,1,.714,1.567,2.657,2.657,0,0,1-.263,1.166,4.678,4.678,0,0,1-1,1.254l-2.354,2.266Z"/>
      <path id="Path_23" data-name="Path 23" class="cls-9" d="M295.948,267.165a2.581,2.581,0,0,1,0-3.037,1.736,1.736,0,0,1,2.591-.005,2.618,2.618,0,0,1,0,3.047,1.736,1.736,0,0,1-2.591-.005Zm2.091-.435a2.2,2.2,0,0,0,0-2.167.989.989,0,0,0-1.579.005,2.138,2.138,0,0,0,0,2.157.989.989,0,0,0,1.579.005Zm3.849-3.119h.847l-5.257,7.7h-.848Zm-1.061,7.189a2.613,2.613,0,0,1,0-3.047,1.735,1.735,0,0,1,2.59.005,2.571,2.571,0,0,1,0,3.036,1.736,1.736,0,0,1-2.59.006Zm2.079-.446a2.14,2.14,0,0,0,0-2.155.99.99,0,0,0-1.579-.006,2.2,2.2,0,0,0,0,2.167.99.99,0,0,0,1.579-.006Z"/>
    </g>
    <g id="Group_8" data-name="Group 8">
      <path id="Path_24" data-name="Path 24" class="cls-9" d="M153.685,196.785a2.025,2.025,0,0,1,.594,1.5,2.22,2.22,0,0,1-.33,1.193,2.268,2.268,0,0,1-.985.847,3.681,3.681,0,0,1-1.6.314,5.077,5.077,0,0,1-1.584-.248,3.373,3.373,0,0,1-1.243-.687l.506-.869a2.9,2.9,0,0,0,1.012.6,3.783,3.783,0,0,0,1.309.226,2.167,2.167,0,0,0,1.336-.363,1.185,1.185,0,0,0,.479-1,1.163,1.163,0,0,0-.473-.99,2.386,2.386,0,0,0-1.43-.352h-.616v-.77l1.936-2.376h-3.707v-.957h5.082v.748l-2.013,2.486A2.75,2.75,0,0,1,153.685,196.785Z"/>
      <path id="Path_25" data-name="Path 25" class="cls-9" d="M155.566,196.406a2.575,2.575,0,0,1,0-3.036,1.737,1.737,0,0,1,2.591-.006,2.618,2.618,0,0,1,0,3.047,1.736,1.736,0,0,1-2.591,0Zm2.09-.435a2.2,2.2,0,0,0,0-2.167.989.989,0,0,0-1.578.006,2.136,2.136,0,0,0,0,2.156.988.988,0,0,0,1.578,0Zm3.85-3.118h.847l-5.258,7.7h-.847Zm-1.062,7.188a2.618,2.618,0,0,1,0-3.047,1.737,1.737,0,0,1,2.591.006,2.575,2.575,0,0,1,0,3.036,1.736,1.736,0,0,1-2.591.005Zm2.079-.445a2.136,2.136,0,0,0,0-2.156.988.988,0,0,0-1.578-.006,2.2,2.2,0,0,0,0,2.167.988.988,0,0,0,1.578-.005Z"/>
    </g>
    <g id="Group_9" data-name="Group 9">
      <path id="Path_26" data-name="Path 26" class="cls-8" d="M132.542,224.386v7.7h-1.089v-6.743h-1.738v-.957Z"/>
      <path id="Path_27" data-name="Path 27" class="cls-8" d="M134.423,231.938a.729.729,0,0,1-.22-.545.714.714,0,0,1,.22-.534.728.728,0,0,1,.528-.214.7.7,0,0,1,.517.209.73.73,0,0,1,.209.539.741.741,0,0,1-.215.545.7.7,0,0,1-.511.214A.728.728,0,0,1,134.423,231.938Z"/>
      <path id="Path_28" data-name="Path 28" class="cls-8" d="M143.322,230.194h-1.463v1.892h-1.067v-1.892h-4.279v-.77l3.938-5.038h1.188l-3.773,4.862h2.959v-1.672h1.034v1.672h1.463Z"/>
      <path id="Path_29" data-name="Path 29" class="cls-8" d="M144.026,227.939a2.575,2.575,0,0,1,0-3.036,1.737,1.737,0,0,1,2.591-.006,2.618,2.618,0,0,1,0,3.047,1.736,1.736,0,0,1-2.591-.005Zm2.09-.435a2.2,2.2,0,0,0,0-2.167.989.989,0,0,0-1.578.006,2.136,2.136,0,0,0,0,2.156.988.988,0,0,0,1.578.005Zm3.85-3.118h.847l-5.258,7.7h-.847Zm-1.062,7.188a2.618,2.618,0,0,1,0-3.047,1.737,1.737,0,0,1,2.591.006,2.575,2.575,0,0,1,0,3.036,1.736,1.736,0,0,1-2.591.005Zm2.079-.445a2.136,2.136,0,0,0,0-2.156.989.989,0,0,0-1.578-.006,2.2,2.2,0,0,0,0,2.167.988.988,0,0,0,1.578-.005Z"/>
    </g>
    <g id="Group_10" data-name="Group 10">
      <path id="Path_30" data-name="Path 30" class="cls-8" d="M128.442,260.223h-1.463v1.892h-1.067v-1.892h-4.279v-.77l3.938-5.038h1.188l-3.773,4.862h2.959v-1.672h1.034v1.672h1.463Z"/>
      <path id="Path_31" data-name="Path 31" class="cls-8" d="M129.146,257.968a2.575,2.575,0,0,1,0-3.036,1.735,1.735,0,0,1,2.59-.005,2.613,2.613,0,0,1,0,3.047,1.736,1.736,0,0,1-2.59-.006Zm2.09-.434a2.2,2.2,0,0,0,0-2.167.989.989,0,0,0-1.579,0,2.142,2.142,0,0,0,0,2.156.99.99,0,0,0,1.579.006Zm3.849-3.119h.848l-5.258,7.7h-.847Zm-1.061,7.189a2.618,2.618,0,0,1,0-3.047,1.736,1.736,0,0,1,2.591.005,2.575,2.575,0,0,1,0,3.036,1.737,1.737,0,0,1-2.591.006Zm2.079-.446a2.136,2.136,0,0,0,0-2.156.989.989,0,0,0-1.579-.005,2.2,2.2,0,0,0,0,2.167.99.99,0,0,0,1.579-.006Z"/>
    </g>
    <g id="Group_11" data-name="Group 11">
      <path id="Path_32" data-name="Path 32" class="cls-9" d="M136.259,306.94a1.851,1.851,0,0,1,.351,1.133,1.985,1.985,0,0,1-.374,1.205,2.342,2.342,0,0,1-1.066.786,4.393,4.393,0,0,1-1.629.276,4.313,4.313,0,0,1-1.611-.276,2.357,2.357,0,0,1-1.062-.786,1.985,1.985,0,0,1-.374-1.205,1.868,1.868,0,0,1,.347-1.133,2.175,2.175,0,0,1,1.007-.725,1.927,1.927,0,0,1-.8-.671,1.754,1.754,0,0,1-.275-.99,1.834,1.834,0,0,1,.346-1.112,2.2,2.2,0,0,1,.974-.725,3.848,3.848,0,0,1,1.451-.253,3.93,3.93,0,0,1,1.469.253,2.188,2.188,0,0,1,.979.725,1.835,1.835,0,0,1,.347,1.112,1.739,1.739,0,0,1-.281.984,1.953,1.953,0,0,1-.809.677A2.22,2.22,0,0,1,136.259,306.94Zm-1.277,2.129a1.2,1.2,0,0,0,.529-1.028,1.163,1.163,0,0,0-.529-1.007,2.483,2.483,0,0,0-1.441-.368,2.435,2.435,0,0,0-1.43.368,1.172,1.172,0,0,0-.516,1.007,1.209,1.209,0,0,0,.516,1.028,2.377,2.377,0,0,0,1.43.379A2.423,2.423,0,0,0,134.982,309.069Zm-2.672-5.379a1.137,1.137,0,0,0-.006,1.81,2.043,2.043,0,0,0,1.237.33,2.114,2.114,0,0,0,1.26-.33,1.117,1.117,0,0,0-.011-1.81,2.1,2.1,0,0,0-1.249-.336A2.024,2.024,0,0,0,132.31,303.69Z"/>
      <path id="Path_33" data-name="Path 33" class="cls-9" d="M137.887,306.1a2.575,2.575,0,0,1,0-3.036,1.736,1.736,0,0,1,2.591-.005,2.618,2.618,0,0,1,0,3.047,1.735,1.735,0,0,1-2.591-.006Zm2.09-.434a2.2,2.2,0,0,0,0-2.167.988.988,0,0,0-1.579.006,2.136,2.136,0,0,0,0,2.156.989.989,0,0,0,1.579.005Zm3.849-3.118h.848l-5.258,7.7h-.848Zm-1.061,7.188a2.613,2.613,0,0,1,0-3.047,1.735,1.735,0,0,1,2.59.005,2.571,2.571,0,0,1,0,3.036,1.736,1.736,0,0,1-2.59.006Zm2.079-.445a2.136,2.136,0,0,0,0-2.156.989.989,0,0,0-1.578-.006,2.189,2.189,0,0,0,0,2.167.989.989,0,0,0,1.578,0Z"/>
    </g>
  </g>
</svg>
