<svg id="Group_2" data-name="Group 2" xmlns="http://www.w3.org/2000/svg" xmlns:xlink="http://www.w3.org/1999/xlink" viewBox="0 0 20 20">
  <defs>
    <style>
      .cls-1 {
        fill: none;
      }

      .cls-2 {
        clip-path: url(#clip-path);
      }

      .cls-3 {
        fill: #fafafa;
      }
    </style>
    <clipPath id="clip-path">
      <path id="Path_1" data-name="Path 1" class="cls-1" d="M6.577,5.335c.163,0,.33,0,.474.007.178,0,.372.017.558.428.221.488.7,1.713.763,1.837a.446.446,0,0,1,.02.433,1.809,1.809,0,0,1-.244.415c-.124.144-.26.322-.373.43-.124.124-.252.26-.109.508a7.405,7.405,0,0,0,1.377,1.714,6.752,6.752,0,0,0,1.992,1.229c.248.124.392.1.536-.062s.619-.72.786-.969.328-.2.553-.123,1.446.681,1.694.805.412.186.474.287a2.05,2.05,0,0,1-.141,1.178,2.49,2.49,0,0,1-1.67,1.175c-.458.043-.885.206-2.974-.617A10.142,10.142,0,0,1,6.06,10.27,4.791,4.791,0,0,1,5.05,7.712a2.788,2.788,0,0,1,.865-2.067A.907.907,0,0,1,6.577,5.335ZM10,0A9.983,9.983,0,0,0,1.426,15.125L.09,20l4.978-1.307A10,10,0,1,0,10,0Z"/>
    </clipPath>
  </defs>
  <g id="Group_1" data-name="Group 1" class="cls-2">
    <rect id="Rectangle_1" data-name="Rectangle 1" class="cls-3" width="30" height="30" transform="translate(-5 -5)"/>
  </g>
</svg>
