<svg id="youtube" xmlns="http://www.w3.org/2000/svg" xmlns:xlink="http://www.w3.org/1999/xlink" viewBox="0 0 20 14">
  <defs>
    <style>
      .cls-1 {
        fill: none;
      }

      .cls-2 {
        clip-path: url(#clip-path);
      }

      .cls-3 {
        fill: #fafafa;
      }
    </style>
    <clipPath id="clip-path">
      <path id="Path_1" data-name="Path 1" class="cls-1" d="M19.8,3.02A4.3,4.3,0,0,0,19,1.044,2.863,2.863,0,0,0,17,.2C14.2,0,10,0,10,0H10S5.8,0,3,.2a2.867,2.867,0,0,0-2.005.842A4.3,4.3,0,0,0,.2,3.02,29.966,29.966,0,0,0,0,6.241V7.752a29.942,29.942,0,0,0,.2,3.221,4.3,4.3,0,0,0,.794,1.976A3.4,3.4,0,0,0,3.2,13.8c1.6.153,6.8.2,6.8.2s4.2-.006,7-.208a2.866,2.866,0,0,0,2-.843,4.3,4.3,0,0,0,.8-1.976A29.942,29.942,0,0,0,20,7.752V6.241A29.966,29.966,0,0,0,19.8,3.02ZM7.935,9.582V3.989l5.4,2.806Z"/>
    </clipPath>
  </defs>
  <g id="Group_1" data-name="Group 1" class="cls-2">
    <rect id="Rectangle_1" data-name="Rectangle 1" class="cls-3" width="30" height="24" transform="translate(-5 -5)"/>
  </g>
</svg>
